<svg width="39" height="37" viewBox="0 0 39 37" fill="none" xmlns="http://www.w3.org/2000/svg">
<path fill-rule="evenodd" clip-rule="evenodd" d="M0 18.5C0 8.28273 8.73045 0 19.5 0C30.2696 0 39 8.28273 39 18.5C39 28.7173 30.2696 37 19.5 37C8.73045 37 0 28.7173 0 18.5Z" fill="url(#paint0_linear)"/>
<path fill-rule="evenodd" clip-rule="evenodd" d="M19.5011 8.6333C16.6766 8.6333 16.3221 8.64502 15.2128 8.69291C14.1056 8.74101 13.3498 8.90731 12.6886 9.15131C12.0045 9.40332 11.4243 9.74043 10.8462 10.2891C10.2677 10.8375 9.91239 11.388 9.64589 12.0367C9.38805 12.6643 9.21255 13.3815 9.16271 14.4315C9.1131 15.4839 9.1001 15.8204 9.1001 18.5001C9.1001 21.1797 9.11266 21.515 9.16293 22.5674C9.21385 23.6178 9.38913 24.3348 9.6461 24.9622C9.91196 25.6111 10.2673 26.1616 10.8456 26.71C11.4234 27.2589 12.0037 27.5968 12.6873 27.8488C13.349 28.0928 14.1049 28.2591 15.2119 28.3072C16.3212 28.3551 16.6755 28.3668 19.4998 28.3668C22.3245 28.3668 22.6779 28.3551 23.7872 28.3072C24.8944 28.2591 25.651 28.0928 26.3127 27.8488C26.9965 27.5968 27.5759 27.2589 28.1537 26.71C28.7323 26.1616 29.0876 25.6111 29.3541 24.9624C29.6098 24.3348 29.7853 23.6176 29.8373 22.5676C29.8871 21.5152 29.9001 21.1797 29.9001 18.5001C29.9001 15.8204 29.8871 15.4841 29.8373 14.4317C29.7853 13.3813 29.6098 12.6643 29.3541 12.0369C29.0876 11.388 28.7323 10.8375 28.1537 10.2891C27.5752 9.74023 26.9967 9.40311 26.3121 9.15131C25.6491 8.90731 24.8929 8.74101 23.7857 8.69291C22.6764 8.64502 22.3232 8.6333 19.4978 8.6333H19.5011ZM18.5681 10.4113C18.845 10.4109 19.1539 10.4113 19.501 10.4113C22.2779 10.4113 22.607 10.4208 23.7035 10.4681C24.7175 10.5121 25.2679 10.6728 25.6345 10.8079C26.1198 10.9867 26.4659 11.2005 26.8296 11.5458C27.1936 11.8912 27.419 12.22 27.6079 12.6805C27.7503 13.0279 27.9199 13.55 27.9661 14.512C28.0159 15.5521 28.0267 15.8646 28.0267 18.4978C28.0267 21.131 28.0159 21.4434 27.9661 22.4835C27.9197 23.4456 27.7503 23.9677 27.6079 24.3151C27.4194 24.7755 27.1936 25.1034 26.8296 25.4485C26.4656 25.7938 26.12 26.0076 25.6345 26.1865C25.2683 26.3221 24.7175 26.4825 23.7035 26.5265C22.6072 26.5737 22.2779 26.584 19.501 26.584C16.724 26.584 16.3949 26.5737 15.2985 26.5265C14.2845 26.4821 13.7342 26.3213 13.3673 26.1863C12.882 26.0074 12.5353 25.7936 12.1713 25.4483C11.8073 25.103 11.582 24.7749 11.3931 24.3142C11.2507 23.9668 11.0811 23.4447 11.0349 22.4827C10.9851 21.4426 10.9751 21.1302 10.9751 18.4953C10.9751 15.8605 10.9851 15.5497 11.0349 14.5096C11.0813 13.5475 11.2507 13.0254 11.3931 12.6776C11.5816 12.2172 11.8073 11.8883 12.1713 11.5429C12.5353 11.1976 12.882 10.9838 13.3673 10.8046C13.734 10.6689 14.2845 10.5086 15.2985 10.4644C16.2579 10.4233 16.6297 10.4109 18.5681 10.4089V10.4113ZM25.0525 12.0496C24.3635 12.0496 23.8045 12.5794 23.8045 13.2332C23.8045 13.8869 24.3635 14.4173 25.0525 14.4173C25.7415 14.4173 26.3005 13.8869 26.3005 13.2332C26.3005 12.5796 25.7415 12.0496 25.0525 12.0496ZM19.5011 13.433C16.5516 13.433 14.1602 15.7018 14.1602 18.5C14.1602 21.2983 16.5516 23.566 19.5011 23.566C22.4506 23.566 24.8411 21.2983 24.8411 18.5C24.8411 15.7018 22.4506 13.433 19.5011 13.433ZM19.5011 15.2111C21.4155 15.2111 22.9678 16.6835 22.9678 18.5C22.9678 20.3164 21.4155 21.789 19.5011 21.789C17.5863 21.789 16.0343 20.3164 16.0343 18.5C16.0343 16.6835 17.5863 15.2111 19.5011 15.2111Z" fill="white"/>
<defs>
<linearGradient id="paint0_linear" x1="9.14063" y1="1.73438" x2="28.2653" y2="36.7152" gradientUnits="userSpaceOnUse">
<stop stop-color="#A335B5"/>
<stop offset="0.411981" stop-color="#CB2D2D"/>
<stop offset="0.734903" stop-color="#FF4D00" stop-opacity="0.85"/>
<stop offset="0.958866" stop-color="#FFE600" stop-opacity="0.85"/>
</linearGradient>
</defs>
</svg>
