<svg width="39" height="37" viewBox="0 0 39 37" fill="none" xmlns="http://www.w3.org/2000/svg">
<path fill-rule="evenodd" clip-rule="evenodd" d="M0 18.5C0 8.28273 8.73045 0 19.5 0C30.2696 0 39 8.28273 39 18.5C39 28.7173 30.2696 37 19.5 37C8.73045 37 0 28.7173 0 18.5Z" fill="#0077B5"/>
<path d="M14.0716 11.4258C14.0429 10.1907 13.1119 9.25 11.6002 9.25C10.0884 9.25 9.1001 10.1907 9.1001 11.4258C9.1001 12.6353 10.0592 13.6032 11.5428 13.6032H11.5711C13.1119 13.6032 14.0716 12.6353 14.0716 11.4258Z" fill="white"/>
<path d="M13.7805 15.3226H9.36142V27.9193H13.7805V15.3226Z" fill="white"/>
<path d="M24.6295 15.0267C27.5375 15.0267 29.7176 16.8275 29.7176 20.6967L29.7174 27.9193H25.2985V21.18C25.2985 19.4872 24.659 18.3322 23.0593 18.3322C21.8384 18.3322 21.1112 19.1109 20.7918 19.863C20.675 20.1325 20.6463 20.5081 20.6463 20.8845V27.9196H16.2266C16.2266 27.9196 16.2849 16.5049 16.2266 15.3229H20.6463V17.1071C21.2328 16.2494 22.2833 15.0267 24.6295 15.0267Z" fill="white"/>
</svg>
