<svg width="39" height="37" viewBox="0 0 39 37" fill="none" xmlns="http://www.w3.org/2000/svg">
<path fill-rule="evenodd" clip-rule="evenodd" d="M0 18.5C0 8.28273 8.73045 0 19.5 0C30.2696 0 39 8.28273 39 18.5C39 28.7173 30.2696 37 19.5 37C8.73045 37 0 28.7173 0 18.5Z" fill="#55ACEE"/>
<path fill-rule="evenodd" clip-rule="evenodd" d="M18.916 15.037L18.9569 15.6771L18.2749 15.5988C15.7925 15.2983 13.6237 14.2793 11.7823 12.5679L10.8821 11.7187L10.6502 12.3458C10.1592 13.7437 10.4729 15.2199 11.4959 16.2128C12.0415 16.7615 11.9187 16.8399 10.9776 16.5133C10.6502 16.4087 10.3638 16.3304 10.3365 16.3695C10.241 16.461 10.5684 17.6498 10.8275 18.1201C11.1822 18.7733 11.9051 19.4135 12.6962 19.7923L13.3646 20.0928L12.5734 20.1059C11.8096 20.1059 11.7823 20.119 11.8642 20.3933C12.137 21.2425 13.2145 22.1439 14.4148 22.5358L15.2605 22.8102L14.5239 23.2282C13.4328 23.8292 12.1506 24.1688 10.8685 24.195C10.2547 24.208 9.75 24.2603 9.75 24.2995C9.75 24.4301 11.4141 25.1617 12.3825 25.4491C15.2878 26.2983 18.7387 25.9325 21.3302 24.4824C23.1716 23.4503 25.013 21.3992 25.8723 19.4135C26.3361 18.3553 26.7998 16.4218 26.7998 15.4943C26.7998 14.8933 26.8407 14.8149 27.6046 14.0964C28.0547 13.6783 28.4775 13.2211 28.5593 13.0905C28.6957 12.8422 28.6821 12.8422 27.9865 13.0643C26.8271 13.4562 26.6634 13.404 27.2363 12.8161C27.6591 12.3981 28.1638 11.6403 28.1638 11.4182C28.1638 11.3791 27.9592 11.4444 27.7273 11.562C27.4818 11.6926 26.9362 11.8886 26.527 12.0061L25.7905 12.2282L25.1221 11.7971C24.7538 11.562 24.2355 11.3007 23.9627 11.2223C23.2671 11.0394 22.2032 11.0655 21.5757 11.2745C19.8708 11.8624 18.7932 13.3779 18.916 15.037Z" fill="white"/>
</svg>
