<svg width="602" height="434" viewBox="0 0 602 434" fill="none" xmlns="http://www.w3.org/2000/svg">
<path opacity="0.33" d="M601.416 258.977C596.322 299.64 566.966 292.874 562.323 340.145C560.663 357.02 573.189 367.626 579.402 382.231C586.292 398.383 583.852 412.886 574.545 423.956H64.1227C52.8387 418.873 42.0743 413.474 32.6993 406.979C19.8001 398.055 9.58914 387.065 4.38202 371.986C-0.316815 358.364 -3.9426 345.227 8.40313 334.892C15.1012 329.279 22.0817 324.941 28.1473 319.734C32.7105 315.826 36.743 311.421 39.7927 305.592C62.0444 262.908 33.5012 225.294 23.0192 182.587C22.0026 178.442 21.0764 174.24 20.3422 170.038C18.422 159.33 17.5297 148.453 18.6705 137.869C19.6984 128.178 22.4432 118.69 27.6164 109.766C35.3988 96.3814 55.5609 76.626 77.2252 80.3986C93.5017 83.2337 103.747 98.8438 118.453 104.491C136.977 111.607 157.523 105.915 171.405 95.4552C198.401 75.1124 215.694 36.46 261.824 39.9954C277.468 41.1927 288.029 53.5497 301.741 59.2087C320.593 67.0024 339.196 66.9459 357.212 59.3668C377.939 50.6468 392.149 34.4381 412.503 25.1647C419.167 22.1263 426.418 19.4719 433.986 17.4387C450.353 13.011 468.256 11.441 485.131 14.8521C488.712 15.575 492.1 16.4335 495.32 17.4387C551.751 34.8109 554.416 91.7277 551.762 133.249C550.542 152.27 535.316 185.083 546.566 204.748C557.816 224.413 606.33 219.669 601.416 258.977Z" fill="#B8E5FF"/>
<path d="M100.031 423.956H95.2754L94.6768 403.003H106.695L100.031 423.956Z" fill="#B8E5FF"/>
<path d="M188.8 423.956H193.556L194.154 403.003H182.136L188.8 423.956Z" fill="#B8E5FF"/>
<path d="M200.412 199.496H88.4194V405.409H200.412V199.496Z" fill="#94D5FF"/>
<path d="M190.935 215.038H97.9072V255.498H190.935V215.038Z" fill="#B8E5FF"/>
<path d="M144.421 241.469C147.84 241.469 150.611 238.698 150.611 235.28C150.611 231.861 147.84 229.09 144.421 229.09C141.003 229.09 138.231 231.861 138.231 235.28C138.231 238.698 141.003 241.469 144.421 241.469Z" fill="#94D5FF"/>
<path d="M190.935 259.824H97.9072V300.284H190.935V259.824Z" fill="#B8E5FF"/>
<path d="M144.421 286.244C147.84 286.244 150.611 283.472 150.611 280.054C150.611 276.635 147.84 273.864 144.421 273.864C141.003 273.864 138.231 276.635 138.231 280.054C138.231 283.472 141.003 286.244 144.421 286.244Z" fill="#94D5FF"/>
<path d="M190.935 304.61H97.9072V345.07H190.935V304.61Z" fill="#B8E5FF"/>
<path d="M144.421 331.03C147.84 331.03 150.611 328.258 150.611 324.84C150.611 321.421 147.84 318.65 144.421 318.65C141.003 318.65 138.231 321.421 138.231 324.84C138.231 328.258 141.003 331.03 144.421 331.03Z" fill="#94D5FF"/>
<path d="M190.935 349.396H97.9072V389.855H190.935V349.396Z" fill="#B8E5FF"/>
<path d="M144.421 375.815C147.84 375.815 150.611 373.044 150.611 369.625C150.611 366.207 147.84 363.436 144.421 363.436C141.003 363.436 138.231 366.207 138.231 369.625C138.231 373.044 141.003 375.815 144.421 375.815Z" fill="#94D5FF"/>
<path d="M203.71 196.096H85.1094V203.867H203.71V196.096Z" fill="#B8E5FF"/>
<path d="M129.296 59.3443C127.952 55.6281 130.753 50.8389 134.413 48.433C136.853 46.8291 139.688 45.7899 141.201 43.6777C141.054 46.4677 140.332 48.9074 138.468 51.5618C136.435 54.476 133.306 57.4918 129.296 59.3443Z" fill="#94D5FF"/>
<path d="M129.296 60.6205C129.816 58.5761 127.658 56.6333 126.28 55.5264C124.891 54.3968 123.344 53.448 122.135 52.1943C119.481 49.4608 119.379 44.152 122.383 41.2717C121.536 41.9946 122.858 44.4457 123.264 45.0782C124.213 46.5466 125.693 47.6423 126.947 48.9186C129.872 51.9232 130.369 56.3396 129.296 60.6205Z" fill="#B8E5FF"/>
<path d="M130.042 56.7125C129.364 54.8375 131.318 52.5784 132.561 51.2569C133.814 49.924 135.238 48.7267 136.311 47.3035C138.649 44.2086 138.321 39.1032 135.17 36.8667C136.051 37.4202 134.978 40.0068 134.639 40.6845C133.837 42.2658 132.482 43.5761 131.375 45.0332C128.754 48.4444 128.63 52.793 130.042 56.7125Z" fill="#B8E5FF"/>
<path d="M128.946 56.2268C128.28 56.0687 127.625 55.1763 127.308 54.7019C126.687 53.787 126.337 52.7705 126.156 51.72C125.716 49.0656 126.518 46.479 126.642 43.915C126.732 41.927 126.608 39.939 125.93 38.1205C125.591 37.2056 125.015 36.4601 124.507 35.6468C124.462 35.5791 125.332 35.8501 125.388 35.8727C130.686 38.2673 131.804 43.1808 130.799 48.2185C130.482 49.7885 130.268 51.336 129.771 52.9173C129.454 53.9 128.698 55.2328 128.946 56.2268Z" fill="#94D5FF"/>
<path d="M136.31 69.5553H125.388L121.807 58.1245H139.891L136.31 69.5553Z" fill="#B8E5FF"/>
<path d="M136.83 70.4249H124.812L124.733 68.6177H136.898L136.83 70.4249Z" fill="#94D5FF"/>
<path d="M140.207 59.4799H121.423L121.073 55.8767H140.558L140.207 59.4799Z" fill="#94D5FF"/>
<path d="M204.263 48.5236L205.562 51.1667C206.048 52.1494 206.986 52.8384 208.081 52.9966L210.995 53.4258C213.74 53.8211 214.836 57.1984 212.848 59.1299L210.736 61.1856C209.945 61.9537 209.583 63.0606 209.775 64.145L210.272 67.0479C210.736 69.7813 207.878 71.8596 205.427 70.572L202.818 69.2053C201.846 68.697 200.683 68.697 199.711 69.2053L197.102 70.572C194.651 71.8596 191.782 69.7813 192.256 67.0479L192.753 64.145C192.934 63.0606 192.584 61.9537 191.793 61.1856L189.681 59.1299C187.693 57.1984 188.789 53.8324 191.534 53.4258L194.448 52.9966C195.532 52.8384 196.481 52.1494 196.967 51.1667L198.266 48.5236C199.497 46.0387 203.032 46.0387 204.263 48.5236Z" fill="#94D5FF"/>
<path d="M173.088 26.5317H161.104V70.6737H173.088V26.5317Z" fill="#94D5FF"/>
<path d="M179.583 32.304H172.749V70.6853H179.583V32.304Z" fill="#50BCFF"/>
<path d="M161.341 42.0403H151.277V70.6851H161.341V42.0403Z" fill="#B8E5FF"/>
<path opacity="0.68" d="M161.341 46.4116H151.277V49.7324H161.341V46.4116Z" fill="#94D5FF"/>
<path opacity="0.68" d="M161.341 63.908H151.277V67.2288H161.341V63.908Z" fill="#94D5FF"/>
<path d="M187.444 29.7847H178.996V70.6848H187.444V29.7847Z" fill="#94D5FF"/>
<path d="M185.207 42.1758H181.22V60.4967H185.207V42.1758Z" fill="#B8E5FF"/>
<path d="M196.272 97.4441H203.343V80.2866H196.272V97.4441Z" fill="#94D5FF"/>
<path d="M191.675 83.6499H207.94V78.7139H191.675V83.6499Z" fill="#94D5FF"/>
<path d="M125.832 97.4441H132.902V80.2866H125.832V97.4441Z" fill="#94D5FF"/>
<path d="M121.234 83.6499H137.5V78.7139H121.234V83.6499Z" fill="#94D5FF"/>
<path d="M109.117 79.5269L220.07 79.5269V70.2534L109.117 70.2534V79.5269Z" fill="#B8E5FF"/>
<path d="M77.677 124.033H70.4706C70.2108 124.033 69.9962 124.191 69.9059 124.439L57.018 146.183C56.8598 146.646 57.21 147.165 57.6844 147.165H70.2221C70.4819 147.165 70.6965 147.007 70.7869 146.759L78.3321 125.015C78.5016 124.552 78.1514 124.033 77.677 124.033Z" fill="#94D5FF"/>
<path d="M63.6484 115.324H101.567L106.683 147.211H68.7539L63.6484 115.324Z" fill="#50BCFF"/>
<path d="M64.9702 115.324H102.9L108.005 147.211H70.087L64.9702 115.324Z" fill="#94D5FF"/>
<path d="M68.4375 118.272H100.381L104.548 144.274H72.6054L68.4375 118.272Z" fill="white"/>
<path d="M73.7915 123.265H96.6193L99.1946 139.281H76.3555L73.7915 123.265Z" fill="#94D5FF"/>
<path d="M135.34 136.22C135.34 140.309 133.035 143.856 129.647 145.629C129.579 145.675 129.511 145.708 129.444 145.731C128.02 146.454 126.416 146.849 124.711 146.849C121.424 146.849 118.476 145.347 116.522 142.986C116.364 142.806 116.217 142.614 116.081 142.41C114.816 140.671 114.082 138.536 114.082 136.22C114.082 130.946 117.945 126.563 122.983 125.738C123.152 125.705 123.322 125.682 123.491 125.659C123.886 125.614 124.293 125.592 124.711 125.592C130.065 125.592 134.493 129.556 135.227 134.707C135.261 134.921 135.283 135.136 135.306 135.351C135.328 135.633 135.34 135.927 135.34 136.22Z" fill="#94D5FF"/>
<path d="M122.813 136.91C121.808 138.559 120.52 140.095 119.063 141.371C118.306 142.026 117.459 142.625 116.522 142.986C116.363 142.806 116.217 142.614 116.081 142.41C117.391 141.846 118.532 140.919 119.549 139.891C120.961 138.457 122.203 136.842 123.073 135.012C123.976 133.103 124.394 130.934 124.078 128.822C123.931 127.873 123.638 126.936 123.186 126.089C123.129 125.976 123.062 125.851 122.982 125.738C123.152 125.705 123.321 125.682 123.491 125.659C123.615 125.863 123.717 126.066 123.807 126.247C125.501 129.681 124.745 133.747 122.813 136.91Z" fill="#B8E5FF"/>
<path d="M135.306 135.351C134.843 135.678 134.413 136.051 133.995 136.446C131.488 138.852 129.963 142.184 129.647 145.63C129.579 145.675 129.511 145.709 129.443 145.731C129.579 142.117 131.07 138.638 133.634 136.074C134.131 135.577 134.662 135.125 135.227 134.707C135.26 134.922 135.283 135.136 135.306 135.351Z" fill="#B8E5FF"/>
<path d="M129.207 173.53H136.278V156.373H129.207V173.53Z" fill="#94D5FF"/>
<path d="M124.61 159.736H140.875V154.8H124.61V159.736Z" fill="#94D5FF"/>
<path d="M58.7666 173.53H65.8374V156.373H58.7666V173.53Z" fill="#94D5FF"/>
<path d="M54.1689 159.736H70.4341V154.8H54.1689V159.736Z" fill="#94D5FF"/>
<path d="M42.051 155.613H153.004V146.339H42.051V155.613Z" fill="#B8E5FF"/>
<path d="M520.418 374.866C535.015 374.866 546.849 363.63 546.849 349.768C546.849 335.907 535.015 324.67 520.418 324.67C505.821 324.67 493.987 335.907 493.987 349.768C493.987 363.63 505.821 374.866 520.418 374.866Z" fill="#94D5FF"/>
<path d="M546.092 353.089H495.128L497.658 423.956H543.562L546.092 353.089Z" fill="#B8E5FF"/>
<path d="M550.079 348.729H492.293V357.822H550.079V348.729Z" fill="#94D5FF"/>
<path d="M512.907 330.092C511.495 333.356 510.399 336.745 509.642 340.212C509.021 343.036 508.75 345.871 508.535 348.718H546.804C546.397 339.286 540.524 331.199 532.109 327.245C528.946 327.957 525.738 328.533 522.541 329.053C519.356 329.584 516.137 329.99 512.907 330.092Z" fill="#B8E5FF"/>
<path d="M422.149 0.123047H250.088V113.945H422.149V0.123047Z" fill="#FFD245"/>
<path d="M282.562 112.251C282.472 112.669 282.98 140.004 282.98 140.004L297.698 112.398L282.562 112.251Z" fill="#FFD245"/>
<path d="M417.755 5.10425H254.459V108.976H417.755V5.10425Z" fill="white"/>
<path opacity="0.4" d="M417.766 90.1915H279.523C277.682 90.1915 276.18 88.7005 276.18 86.8481V5.10425H417.755V90.1915H417.766Z" fill="#50BCFF"/>
<path opacity="0.83" d="M417.766 83.3805H287.509C286.436 83.3805 285.566 82.5107 285.566 81.4377V5.10425H417.755V83.3805H417.766Z" fill="white"/>
<g opacity="0.36">
<path opacity="0.36" d="M407.781 26.7347C406.177 25.3228 403.003 25.7633 400.891 25.7181C394.554 25.5713 388.218 25.5035 381.87 25.5374C381.52 25.5374 381.203 25.7633 381.203 26.0683C381.147 30.5977 381.305 35.1158 381.666 39.6339C379.057 36.426 376.233 33.2859 372.901 30.5864C372.721 30.4395 372.348 30.6316 372.517 30.8236C375.702 34.3816 379.012 37.8266 381.847 41.5767C382.129 41.9494 382.977 41.8591 382.943 41.3508C382.593 36.4486 382.434 31.5352 382.513 26.6217C387.54 26.6556 392.578 26.7121 397.604 26.8025C400.089 26.8476 402.608 26.8025 405.093 26.9719C407.871 27.1639 407.273 29.3439 407.95 30.9252C408.086 31.2415 408.572 31.2415 408.73 30.9365C409.374 29.6602 408.944 27.7626 407.781 26.7347Z" fill="#004DBE"/>
<path opacity="0.36" d="M406.787 36.0308C406.008 36.765 405.036 38.4367 403.545 38.0639C402.687 37.8493 402.461 36.844 402.19 36.2454C401.885 35.579 401.58 34.9126 401.275 34.2461C401.128 33.9186 400.529 33.7491 400.281 34.1219C399.852 34.7657 399.389 35.3983 398.846 35.9856C398.462 36.4035 397.491 37.6234 396.7 37.3523C396.068 37.1377 395.831 36.1324 395.751 35.5564C396.181 34.7318 396.395 33.8395 396.237 32.902C396.169 32.5293 395.413 32.4276 395.221 32.7778C394.758 33.6249 394.554 34.5059 394.633 35.4208C394.475 35.6919 394.294 35.9517 394.091 36.2115C393.413 37.0474 392.419 38.0865 391.245 38.4593C389.686 38.9563 388.737 37.7025 388.364 36.6407C388.161 36.0534 387.664 33.896 388.703 33.7943C389.031 33.7604 388.929 33.3651 388.635 33.3538C388.443 33.3425 388.263 33.3312 388.071 33.3199C387.969 33.3086 387.834 33.3651 387.788 33.4442C387.054 34.6979 386.986 36.155 387.619 37.454C388.172 38.5948 389.336 39.6453 390.962 39.4533C392.589 39.2612 393.843 38.0413 394.769 37.0135C394.837 36.9344 394.893 36.844 394.961 36.765C395.187 37.3297 395.526 37.8719 396.068 38.1543C397.83 39.0466 399.637 36.9005 400.654 35.4434C400.97 36.1663 401.286 36.9005 401.648 37.6121C401.998 38.3124 402.529 38.8659 403.489 39.0014C405.533 39.2951 406.945 37.7364 407.261 36.268C407.284 36.0647 406.99 35.8388 406.787 36.0308Z" fill="#004DBE"/>
<path opacity="0.36" d="M415.902 23.832C415.654 23.6061 415.304 23.5835 414.953 23.5609C414.615 23.5383 414.264 23.4818 413.948 23.3802C413.485 23.222 413.022 22.8832 412.965 22.4539C412.943 22.036 412.152 22.0134 412.152 22.4426C412.152 22.4765 412.163 22.4991 412.175 22.533H412.163C412.265 23.0978 412.288 23.6964 412.096 24.2499C412.005 24.5323 411.87 24.7921 411.666 25.0406C411.508 25.2326 411.147 25.594 410.842 25.594C410.548 25.594 410.48 25.1987 410.447 25.018C410.379 24.6113 410.345 24.2047 410.322 23.7981C410.288 22.9848 410.345 22.1828 410.492 21.3809C410.526 21.2228 410.187 21.1776 410.153 21.3357C409.972 22.0812 409.871 22.8493 409.859 23.6061C409.848 23.9901 409.859 24.3741 409.893 24.7469C409.916 25.0293 409.938 25.3229 410.063 25.5827C410.175 25.7973 410.367 25.9894 410.661 26.0458C411.045 26.1249 411.395 25.9329 411.666 25.7409C412.175 25.3907 412.502 24.8937 412.694 24.3854C412.773 24.1482 412.819 23.911 412.864 23.6738C413.011 23.7868 413.169 23.8771 413.349 23.9562C413.745 24.1369 414.174 24.2273 414.615 24.2838C415.055 24.3402 415.529 24.3967 415.891 24.1369C416.004 24.0579 415.993 23.9223 415.902 23.832Z" fill="#004DBE"/>
<path opacity="0.36" d="M370.698 60.0781C370.36 60.4734 369.524 60.4847 369.072 60.2362C368.462 59.9087 368.191 59.2535 367.976 58.7114C367.829 58.3386 367.253 58.2596 366.982 58.5871C366.474 59.1971 365.977 59.7957 365.469 60.4057C365.243 60.6767 364.125 62.2129 363.967 61.2754C363.718 59.8522 364.057 58.237 364.407 56.8476C364.543 56.3281 363.56 56.0796 363.424 56.6104C363.097 57.8755 362.476 59.0615 361.549 60.1007C360.838 60.8914 359.256 62.5405 357.856 62.2468C357.02 62.0774 356.884 61.2302 356.771 60.6429C356.625 59.9313 356.579 59.2084 356.625 58.4855C356.715 57.0284 357.201 55.6052 358.014 54.3175C358.229 53.9674 357.607 53.6511 357.381 54.0012C356.387 55.5035 355.823 57.1752 355.744 58.8808C355.687 60.1233 355.653 62.3823 357.347 62.9471C359.042 63.5119 360.815 62.0661 361.798 61.1173C362.204 60.7219 362.555 60.304 362.882 59.8748V59.8861C362.848 60.5977 362.6 61.8402 363.424 62.3259C364.181 62.7777 365.085 62.3597 365.582 61.8402C366.203 61.185 366.756 60.4847 367.321 59.7844C367.683 60.417 368.18 60.993 369.016 61.2076C369.976 61.4674 371.06 61.1624 371.331 60.3153C371.444 59.9877 370.936 59.8183 370.698 60.0781Z" fill="#004DBE"/>
<path opacity="0.36" d="M380.74 61.592C380.582 61.3435 380.243 61.1289 380.006 60.9369C379.723 60.711 379.441 60.4738 379.159 60.2479C379.057 60.1575 378.944 60.0785 378.842 59.9881C378.922 59.7961 379.012 59.6154 379.08 59.4233C379.509 58.3051 379.825 57.1643 379.814 55.9896C379.814 55.7072 379.306 55.7072 379.283 55.9783C379.159 57.1191 378.73 58.2148 378.187 59.2765C378.165 59.3217 378.142 59.3669 378.12 59.4008C377.916 59.2313 377.713 59.0619 377.498 58.9038L374.11 56.2833C373.782 56.0235 373.297 56.4075 373.601 56.6899C374.663 57.65 375.725 58.5988 376.775 59.5589C377.058 59.8074 377.34 60.0559 377.623 60.2931C377.532 60.4512 377.442 60.6206 377.352 60.7901C377.047 61.3322 376.685 61.9083 376.47 62.4731C376.29 62.9588 377.171 63.2976 377.464 62.8345C377.815 62.3036 378.074 61.705 378.334 61.1402C378.357 61.0838 378.379 61.0273 378.402 60.9708L379.147 61.6033C379.419 61.8405 379.69 62.1568 380.074 62.2585C380.571 62.394 380.943 61.9309 380.74 61.592Z" fill="#004DBE"/>
<path opacity="0.36" d="M409.577 56.701C409.43 56.4977 409.114 56.5993 409.08 56.8026C408.933 57.7175 408.278 58.8358 407.103 59.073C405.714 59.3554 404.494 58.2823 404.539 57.1867C404.562 56.588 403.421 56.4186 403.24 57.0172C402.947 58.0112 402.483 59.649 400.959 59.7394C398.767 59.8636 398.451 57.5707 398.598 56.283C398.666 55.7635 397.638 55.6392 397.491 56.1475C397.096 57.5707 396.011 59.1182 394.272 59.6716C391.696 60.4849 391.369 57.7966 391.482 56.3621C391.516 55.8877 390.567 55.7409 390.443 56.2266C390.431 56.2605 390.431 56.3056 390.42 56.3395C390.42 56.3508 390.42 56.3621 390.42 56.3734C390.364 56.6671 390.341 56.9946 390.341 57.3335C390.194 58.0564 389.844 58.8132 389.2 59.1859C388.94 59.3328 388.455 59.4796 388.251 59.3328C388.071 59.2085 388.138 58.6889 388.15 58.463C388.184 57.8192 388.432 57.2206 388.827 56.6671C388.986 56.4525 388.602 56.2718 388.432 56.4638C387.811 57.1754 386.365 60.146 388.41 60.2929C389.291 60.3606 390.081 59.5248 390.522 58.9939C390.556 58.9487 390.59 58.8923 390.623 58.8471C391.041 59.9766 391.945 60.8915 393.594 60.7899C395.345 60.6656 396.689 59.6377 397.57 58.4066C397.92 59.6039 398.835 60.6317 400.563 60.7899C402.212 60.9367 403.218 60.0218 403.839 58.9261C404.562 59.8185 405.816 60.4058 407.182 60.2138C409.08 59.954 410.639 58.1807 409.577 56.701Z" fill="#004DBE"/>
<path opacity="0.36" d="M349.023 10.0176C348.955 9.78041 348.594 9.65616 348.334 9.78041C340.111 13.7902 331.831 17.7888 323.789 22.0584C323.507 21.8325 323.202 21.6291 322.863 21.471C322.739 21.4145 322.547 21.4371 322.479 21.5501C322.355 21.7534 322.31 21.9341 322.468 22.1374C322.558 22.2504 322.761 22.1826 322.739 22.0471V22.0358C322.874 22.16 323.01 22.273 323.145 22.3972C322.4 22.7926 321.643 23.1766 320.909 23.5832C320.706 23.6962 320.875 23.956 321.09 23.8543C321.892 23.4703 322.682 23.0749 323.484 22.6909C323.801 22.9733 324.105 23.2557 324.377 23.5832C324.907 24.2271 325.337 24.9274 325.63 25.6616C325.811 26.1247 326.003 26.6555 326.093 27.1864C322.694 26.9718 319.305 26.6668 315.905 26.3054C315.419 26.2602 315.284 26.9379 315.77 27.017C319.181 27.5366 322.637 27.8754 326.127 28.0787C326.071 28.6209 325.868 29.1179 325.359 29.5019C325.258 29.581 325.291 29.7504 325.438 29.773C326.387 29.9538 326.816 29.1179 326.929 28.4854C326.952 28.3724 326.952 28.2482 326.952 28.1239C334.994 28.5418 343.138 28.203 351.022 27.3107C351.237 27.2881 351.406 27.0848 351.406 26.9153C351.282 21.2225 350.525 15.5749 349.023 10.0176ZM333.142 27.4575C331.063 27.4462 328.996 27.3445 326.929 27.2316C326.862 26.7798 326.726 26.328 326.579 25.8988C326.263 25.0177 325.788 24.1819 325.167 23.4251C324.874 23.0636 324.535 22.6909 324.162 22.352C332.182 18.4778 340.122 14.5018 348.21 10.7292C349.441 15.9476 350.209 21.2338 350.39 26.5426C344.685 27.1864 338.914 27.5027 333.142 27.4575Z" fill="#004DBE"/>
<path opacity="0.36" d="M361.041 15.2926C360.499 15.3265 359.979 15.5637 359.494 15.7331C358.985 15.9138 358.488 16.1058 357.98 16.2978C356.952 16.6932 355.845 17.0433 354.896 17.5403C354.75 17.6194 354.829 17.834 355.021 17.7888C356.094 17.5403 357.122 17.0998 358.149 16.7271C358.658 16.5463 359.177 16.3656 359.674 16.1736C360.171 15.9816 360.759 15.8122 361.154 15.4959C361.233 15.4394 361.177 15.2813 361.041 15.2926Z" fill="#004DBE"/>
<path opacity="0.36" d="M365.028 13.5531C364.678 13.3611 364.215 13.4515 363.831 13.4854C363.323 13.5418 362.803 13.5983 362.295 13.6435C361.787 13.7 361.267 13.7564 360.759 13.8016C360.499 13.8242 360.25 13.8581 359.991 13.9033C359.731 13.9485 359.415 13.9598 359.189 14.084C359.019 14.1857 359.042 14.3664 359.234 14.4342C359.426 14.5019 359.64 14.4793 359.844 14.4681C360.07 14.4681 360.284 14.468 360.51 14.4455C360.951 14.4116 361.391 14.3777 361.832 14.3438L363.153 14.2421C363.56 14.2083 363.989 14.1405 364.396 14.1518H364.407C364.351 14.2873 364.271 14.4116 364.204 14.5471C364.046 14.8295 363.865 15.1006 363.662 15.3717C363.469 15.6315 363.266 15.8687 363.04 16.1059C362.927 16.2301 362.792 16.3431 362.69 16.4673C362.566 16.6029 362.509 16.7497 362.419 16.9078C362.295 17.1337 362.656 17.3032 362.882 17.2128C363.334 17.0321 363.594 16.7723 363.899 16.4447C364.181 16.1398 364.43 15.8235 364.656 15.4959C364.881 15.1684 365.073 14.8408 365.243 14.4906C365.412 14.1744 365.435 13.779 365.028 13.5531Z" fill="#004DBE"/>
<path opacity="0.36" d="M387.641 11.9154C387.246 11.8477 386.851 11.8138 386.455 11.7347C386.026 11.6443 385.676 11.4636 385.269 11.3507C384.795 11.2151 384.343 11.2716 383.937 11.5201C383.496 11.7912 383.248 12.2091 382.886 12.548C381.994 13.3725 381.169 12.435 380.763 11.7234C380.559 11.362 379.927 11.554 379.904 11.9041C379.848 12.5254 378.967 12.7287 378.402 12.4576C377.86 12.2091 377.634 11.7234 377.623 11.2264C377.611 10.865 377.046 10.7181 376.798 11.0344C376.233 11.746 375.578 12.4237 374.799 12.9772C374.2 13.4064 373.556 13.0788 373.319 12.5367C373.116 12.0736 373.15 11.5766 373.364 11.1248C373.511 10.6842 372.743 10.5148 372.551 10.9214C372.302 11.6895 371.817 12.3785 371.06 12.8868C370.518 13.2483 369.513 13.5193 369.083 12.9094C368.79 12.4915 368.744 11.746 368.801 11.2603C368.812 11.2038 368.699 11.1925 368.688 11.249C368.417 11.9154 368.022 12.4915 368.439 13.2031C368.733 13.7001 369.354 14.0389 370.043 13.9825C371.004 13.9147 371.805 13.3612 372.404 12.6948C372.585 13.3386 373.048 13.8921 373.906 14.0276C375.126 14.231 376.245 13.0788 377.001 12.13C377.284 12.74 377.803 13.2483 378.662 13.3499C379.385 13.4403 380.051 13.1579 380.446 12.7061C381.181 13.5306 382.287 14.1519 383.417 13.2483C383.982 12.7965 384.275 11.859 385.202 12.1752C386.071 12.4802 386.817 12.7287 387.709 12.2995C387.867 12.2204 387.867 11.9493 387.641 11.9154Z" fill="#004DBE"/>
<path opacity="0.36" d="M389.257 16.6368C388.534 16.4561 387.732 16.5916 386.964 16.4448C386.173 16.2979 385.405 16.0833 384.603 16.0156C383.846 15.9478 383.112 16.0607 382.457 16.377C382.05 16.569 380.435 17.6195 380.209 16.7385C380.13 16.4335 379.656 16.3544 379.396 16.5464C378.65 17.0886 377.747 17.6986 376.685 17.6195C375.747 17.5517 374.878 16.6255 375.815 16.0269C376.177 15.801 375.714 15.2701 375.341 15.496C374.234 16.1624 374.415 17.5404 375.578 18.0939C376.979 18.7603 378.436 18.173 379.588 17.4388C379.938 17.7437 380.48 17.9019 381.022 17.8567C382.107 17.7776 382.807 16.9305 383.891 16.8401C384.93 16.7611 385.947 17.1338 386.952 17.3032C387.766 17.4388 388.861 17.5969 389.415 16.9644C389.516 16.8514 389.415 16.6707 389.257 16.6368Z" fill="#004DBE"/>
</g>
<path d="M365.186 108.976H286.018C287.159 103.034 291.406 83.5499 297.844 79.1899C303.209 75.5754 309.648 72.4467 318.356 71.2832C318.944 71.1929 319.52 71.1364 320.118 71.0799C320.92 70.9896 321.722 70.9105 322.569 70.8766C322.569 70.8766 322.569 70.8766 322.592 70.8766C325.043 70.7524 327.663 70.7524 330.465 70.9444H330.578C331.142 70.9783 331.707 71.0347 332.272 71.1025C332.803 71.1364 333.322 71.2155 333.853 71.2832C347.871 73.226 360.024 81.5619 362.385 93.309C362.747 95.105 363.063 96.7315 363.334 98.1886V98.2112C364.441 103.972 364.949 107.315 365.186 108.976Z" fill="#004DBE"/>
<path d="M338.914 108.975H319.023C318.492 103.678 317.137 86.8028 316.967 83.8547C316.617 77.6762 316.877 74.4119 318.187 72.7628C318.673 72.1415 319.317 71.7462 320.13 71.509C321 71.2718 322.073 71.204 323.383 71.2379C324.422 71.2605 325.597 71.3509 326.952 71.4412C327.641 71.4977 328.285 71.5542 328.861 71.622C330.239 71.7688 331.369 71.9495 332.284 72.2093C333.3 72.4804 334.079 72.8305 334.689 73.2598C336.293 74.3893 336.655 76.1739 337.095 79.0091C337.762 83.6401 338.835 103.396 338.914 108.975Z" fill="#50BCFF"/>
<path d="M333.266 60.1121H318.932V72.8983H333.266V60.1121Z" fill="#E79F8B"/>
<path d="M366.768 62.36C366.497 57.695 367.219 52.8719 369.558 48.8282C370.088 47.902 371.308 46.9306 372.076 47.6761C372.415 48.0037 372.46 48.5233 372.472 48.9864C372.573 52.5896 372.235 56.1927 371.466 59.7169C372.031 58.5196 373.556 57.8983 374.821 58.305C376.086 58.7116 376.945 60.067 376.854 61.3886C377.182 60.0444 379.238 59.8863 380.232 60.8464C381.226 61.8065 381.384 63.3201 381.395 64.7094C381.892 64.0317 383.044 64.2237 383.586 64.8788C384.117 65.5339 384.185 66.4376 384.185 67.2847C384.162 69.8713 383.631 72.5031 382.265 74.6831C380.898 76.8744 378.605 78.5687 376.03 78.8285C367.886 79.6756 367.084 67.9285 366.768 62.36Z" fill="#E79F8B"/>
<path d="M370.19 76.0835C370.19 76.0835 363.413 72.2544 365.774 67.9848C368.134 63.7152 375.047 65.9291 373.579 68.4253C372.11 70.9329 368.869 70.4811 368.869 70.4811L370.19 76.0835Z" fill="#E79F8B"/>
<path d="M318.469 69.3969C319.226 69.3179 322.942 72.153 326.929 71.9497C330.917 71.7464 332.905 69.9052 333.503 69.2953C334.091 68.6853 337.366 75.214 336.869 75.9256C336.372 76.6372 334.915 79.4271 333.458 78.9189C332.001 78.4106 327.89 73.4971 327.89 73.4971C327.89 73.4971 324.162 79.4384 322.773 79.4384C321.383 79.4384 316.888 77.3488 316.651 74.0845C316.402 70.8314 317.487 69.4986 318.469 69.3969Z" fill="white"/>
<path d="M383.304 76.0949L383.01 108.975H361.403L363.334 98.211V98.1884L367.389 75.6431L369.558 75.6883H369.569L369.772 75.7108H370.1L381.226 76.0384L383.304 76.0949Z" fill="#004DBE"/>
<path d="M342.506 25.8197C342.11 25.5373 341.613 25.5712 341.116 26.0456C340.698 26.4522 340.258 27.1977 340.1 27.7512C339.535 29.6713 339.75 31.7949 340.066 33.636C340.36 35.3303 340.834 37.0133 341.625 38.4704C341.658 38.5268 341.692 38.5946 341.726 38.6511C342.11 39.3288 342.562 39.95 343.104 40.5035C343.217 40.5374 343.319 40.5826 343.443 40.5826C343.816 40.5713 344.177 40.3228 344.46 40.0517C346.391 38.1993 345.962 35.2512 345.601 33.1051C345.171 30.5863 344.245 28.2256 342.867 26.2037C342.754 26.0456 342.63 25.9213 342.506 25.8197Z" fill="#004DBE"/>
<path d="M345.047 42.4011C345.047 54.6791 343.104 65.2063 330.239 66.0309C313.646 67.0926 306.88 54.6678 306.88 42.4011C306.88 30.1345 315.42 20.1833 325.969 20.1833C336.508 20.1833 345.047 30.1232 345.047 42.4011Z" fill="#E79F8B"/>
<path d="M324.761 53.5609C325.246 52.7363 327.822 52.9396 330.849 52.6008C334.271 52.2167 336.655 51.5616 337.253 51.8892C338.383 52.5104 336.056 57.5029 331.639 57.9209C328.488 58.2145 323.891 55.0519 324.761 53.5609Z" fill="white"/>
<path d="M321.564 26.5991C325.077 28.7114 328.567 30.9139 332.351 32.4614C336.666 34.2235 341.387 34.8108 345.409 31.9418C346.335 31.2754 347.487 29.8861 346.075 29.1519C345.149 28.6662 343.918 28.7904 342.912 28.7001C344.053 28.8017 345.273 28.5532 346.165 27.8416C347.069 27.13 347.589 25.9101 347.284 24.8258C347.058 24.0351 346.436 23.4026 345.781 22.8943C343.771 21.3468 341.241 20.5788 338.733 20.0818C338.293 19.9914 337.852 19.9236 337.412 19.8446C337.762 19.3589 338.089 18.8167 337.988 18.2406C337.875 17.6307 337.321 17.2128 336.779 16.8739C332.487 14.2534 327.065 14.0953 321.948 14.084C318.345 14.084 314.572 14.1405 311.353 15.7557C309.851 16.5012 308.315 17.7549 308.145 19.3589C304.655 19.63 301.651 22.3182 300.465 25.4922C299.279 28.6662 299.685 32.2129 300.883 35.3643C302.08 38.5157 303.548 42.0737 304.7 42.7401C305.853 43.4065 305.909 42.6158 307.298 43.2823C308.688 43.9487 308.778 45.9254 309.84 46.0044C310.902 46.0835 310.868 43.2597 311.15 41.9494C311.726 39.295 311.703 36.5503 312.392 33.9185C313.127 31.0721 314.719 28.3951 316.922 26.2151C317.272 25.865 317.667 25.5148 318.119 25.3115C318.232 25.255 319.396 25.5374 319.588 25.5939C320.243 25.7746 320.864 26.1812 321.44 26.5314C321.474 26.554 321.519 26.5766 321.564 26.5991Z" fill="#004DBE"/>
<path d="M307.027 43.1694C305.649 40.6619 303.582 38.9676 301.56 40.707C300.905 41.2718 300.566 42.3449 300.532 43.4179C300.51 44.491 300.758 45.5753 301.109 46.5806C301.99 49.1107 303.548 51.3472 305.502 52.2847C306.237 52.6348 307.095 52.7817 307.705 52.2056C308.541 51.4263 308.699 49.8223 308.631 48.5008C308.563 46.8743 307.953 44.8411 307.027 43.1694Z" fill="#E79F8B"/>
<path d="M302.046 43.3388C302.204 43.0677 302.453 42.887 302.701 42.8305C303.3 42.6837 303.932 43.0903 304.395 43.6438C304.881 44.2198 305.288 44.954 305.649 45.6769C306.022 46.4224 306.304 47.2583 306.463 48.128C306.496 48.2974 306.282 48.3652 306.248 48.1958C305.909 46.7952 305.197 45.4962 304.429 44.4458C304.316 44.2876 304.181 44.1295 304.045 43.9939C303.876 44.6717 303.865 45.4172 304 46.1401C304.158 47.0098 304.486 47.744 304.859 48.4895C304.892 48.5685 304.836 48.6589 304.78 48.5911C303.729 47.4164 303.311 45.3607 303.819 43.768C303.582 43.576 303.334 43.4292 303.063 43.4066C302.633 43.3727 302.136 43.7229 302.012 44.2989C301.99 44.4006 301.854 44.3667 301.843 44.2537C301.854 43.9149 301.888 43.5986 302.046 43.3388Z" fill="#C72C19"/>
<path d="M347.012 37.1713C346.572 36.1773 345.589 35.6126 344.606 35.6352C343.533 35.6691 342.449 35.7368 341.353 35.782C339.478 35.8611 337.547 35.8837 335.615 36.0757C334.226 36.2112 333.119 36.8438 333.029 38.4364C333.029 38.459 333.029 38.4816 333.029 38.4929C333.029 38.4929 333.018 38.4929 333.018 38.4816C332.43 38.1766 331.775 38.1314 331.143 38.2896C330.51 38.459 329.957 38.8091 329.46 39.261L329.448 39.2723C329.414 38.9673 329.392 38.651 329.347 38.346C329.109 36.7421 327.889 36.1548 326.41 36.087C324.286 35.9966 322.118 36.087 319.926 36.0983C318.616 36.1096 317.295 36.0983 315.962 36.1322C314.708 36.1548 313.522 36.8664 313.059 38.0185C312.799 38.6736 312.754 39.3965 312.81 40.1081C312.788 40.1081 312.754 40.1194 312.731 40.1194C312.392 40.1646 312.042 40.2211 311.703 40.2662C311.082 40.3566 310.472 40.447 309.851 40.526C309.241 40.6164 308.631 40.7293 308.01 40.8423C307.694 40.8988 307.343 40.9327 307.061 41.0682C306.869 41.1586 306.632 41.3958 306.779 41.633C307.072 42.0848 307.931 41.8815 308.394 41.8476C308.993 41.8024 309.591 41.7572 310.19 41.6781C310.788 41.5991 311.387 41.5313 311.986 41.4522C312.291 41.4071 312.596 41.3732 312.889 41.328C312.923 41.328 312.946 41.3167 312.98 41.3167C313.319 43.4402 313.737 45.6315 314.459 47.6195C314.753 48.444 315.137 49.246 316.007 49.5848C316.82 49.8898 317.78 49.7994 318.627 49.7881C319.734 49.7656 320.841 49.7091 321.937 49.5961C323.914 49.4041 325.958 49.1669 327.81 48.5908C329.584 48.0487 329.776 46.4673 329.742 44.8182C329.708 43.395 329.685 41.9266 329.584 40.4808C330.103 40.0855 330.657 39.7354 331.256 39.5546C331.47 39.4869 331.662 39.453 331.888 39.4643C332.001 39.4643 332.001 39.4643 332.114 39.4982C332.159 39.5094 332.193 39.5207 332.238 39.532C332.261 39.5433 332.283 39.5433 332.306 39.5546C332.261 39.532 332.261 39.532 332.306 39.5546C332.396 39.5998 332.475 39.645 332.554 39.7015C332.566 39.7128 332.577 39.7128 332.577 39.7241C332.622 39.758 332.656 39.8031 332.69 39.8483C332.701 39.8596 332.769 39.9613 332.735 39.9048C332.701 39.8483 332.78 39.9952 332.792 40.0064C332.814 40.0403 332.837 40.0855 332.803 40.0177C332.859 40.1307 332.871 40.1985 332.938 40.2888C332.961 40.3227 332.995 40.334 333.029 40.3566C333.063 41.8363 333.176 43.3273 333.277 44.7843C333.39 46.3996 333.718 47.9131 335.457 48.1955C337.219 48.4779 339.072 48.4214 340.789 48.3198C341.726 48.2633 342.652 48.1729 343.567 48.0487C344.256 47.947 345.024 47.9131 345.646 47.5291C346.301 47.1225 346.538 46.3657 346.696 45.6202C347.125 43.6322 347.272 41.4861 347.363 39.453C347.396 38.7188 347.34 37.8942 347.012 37.1713Z" fill="black"/>
<path d="M328.477 46.0157C328.386 46.8741 327.98 47.2468 327.167 47.4389C324.128 48.1618 320.694 48.5684 317.43 48.399C316.301 48.3425 316.018 47.8116 315.657 46.8402C315.329 45.9818 315.069 45.1007 314.866 44.2084C314.538 42.7852 314.075 41.3281 314.154 39.8484C314.256 37.8831 315.103 37.5894 316.956 37.5781C317.848 37.5781 318.718 37.5668 319.599 37.5668C321.327 37.5555 323.044 37.5668 324.727 37.5329C325.416 37.5216 326.139 37.4538 326.816 37.5329C327.618 37.6233 327.946 37.9056 328.048 38.7302C328.262 40.3906 328.353 42.0736 328.432 43.734C328.477 44.5021 328.556 45.2702 328.477 46.0157Z" fill="white"/>
<path d="M346.098 42.7176C346.007 43.5195 345.872 44.3215 345.691 45.1122C345.476 46.0158 345.296 46.5128 344.403 46.6935C341.738 47.247 338.733 47.326 335.92 47.0323C335.152 46.9533 334.723 46.6483 334.565 45.8238C334.43 45.1121 334.43 44.3441 334.396 43.6212C334.317 41.9947 334.249 40.3456 334.305 38.719C334.328 37.9171 334.61 37.6234 335.356 37.4765C335.988 37.3636 336.643 37.3749 337.276 37.3523C338.778 37.2845 340.269 37.1829 341.738 37.0925C342.46 37.0473 343.195 37.0021 343.906 36.9683C345.386 36.8779 346.064 37.1038 346.301 38.8207C346.482 40.1196 346.233 41.4299 346.098 42.7176Z" fill="white"/>
<path d="M271.233 99.6907C271.233 102.492 268.962 104.762 266.161 104.762C263.36 104.762 261.089 102.492 261.089 99.6907C261.089 96.8895 263.36 94.6191 266.161 94.6191C268.962 94.6191 271.233 96.8895 271.233 99.6907Z" fill="#D44459"/>
<path d="M217.976 326.342C219.365 326.342 220.325 326.556 221.127 327.799C221.601 328.544 221.816 329.437 221.895 330.284C221.963 331.007 221.737 331.978 222.347 332.419C223.296 333.096 225.08 333.108 226.153 332.961C228.073 332.69 229 331.718 228.254 329.866C227.543 328.092 226.108 326.692 224.403 325.845C223.092 325.201 221.635 324.659 220.178 324.602C219.534 324.58 219.026 324.772 218.54 325.178C218.292 325.393 217.603 326.025 217.976 326.342Z" fill="#004DBE"/>
<path d="M200.852 347.283C197.768 346.267 192.301 357.641 190.98 359.516C185.818 366.858 182.249 375.126 179.775 383.722C176.443 395.299 172.975 406.967 174.319 419.155C175.189 427.039 180.181 432.788 188.676 431.896C192.708 431.467 200.524 430.823 203.856 428.507C205.381 427.457 205.483 426.079 204.161 424.204C202.817 422.295 201.846 422.69 199.553 423.154C195.215 424.012 191.488 425.175 187.749 421.821C184.078 418.522 183.683 412.717 183.875 408.052C184.169 401.218 185.513 394.565 187.309 387.924C189.579 379.543 192.99 371.975 196.13 363.944C197.52 360.386 199.519 356.636 200.321 352.908C200.795 350.683 200.287 348.91 201.078 346.831C200.694 346.764 200.231 346.718 200.852 347.283Z" fill="#004DBE"/>
<path opacity="0.38" d="M185.072 429.264C183.22 427.649 181.876 425.548 180.927 423.3C178.804 418.229 178.487 412.491 178.657 407.058C178.849 401.026 179.741 395.017 180.724 389.076C181.548 384.094 182.542 379.147 183.841 374.268C184.327 372.426 184.88 370.619 185.479 368.823C183.118 373.59 181.243 378.594 179.764 383.71C176.432 395.288 172.964 406.956 174.308 419.144C175.178 427.028 180.17 432.777 188.664 431.885C188.913 431.862 189.184 431.828 189.466 431.806C187.874 431.241 186.383 430.416 185.072 429.264Z" fill="#50BCFF"/>
<path d="M259.463 428.338C257.396 430.349 241.865 432.8 227.452 433.523C224.448 433.669 221.511 433.749 218.744 433.726C211.921 433.692 203.416 433.952 201.044 432.02C195.396 427.457 181.548 349.407 205.472 335.683C210.95 332.543 223.951 330.736 228.977 330.962C229.587 330.995 230.175 331.029 230.739 331.108C246.564 332.95 255.442 350.706 259.294 376.64C264.49 411.497 263.044 424.882 259.463 428.338Z" fill="#FFD245"/>
<path opacity="0.51" d="M227.452 433.522C224.448 433.669 221.511 433.748 218.744 433.737C211.921 433.703 203.416 433.951 201.044 432.031C195.396 427.457 181.548 349.418 205.472 335.694C207.9 334.305 211.797 333.175 215.83 332.362C217.818 331.966 219.851 331.639 221.737 331.413C224.662 331.051 227.272 330.893 228.977 330.961C229.587 330.995 230.175 331.029 230.751 331.108C224.629 331.695 219.704 336.044 217.377 343.476C210.464 365.581 217.456 406.481 227.452 433.522Z" fill="#F59711"/>
<path opacity="0.5" d="M221.737 331.413C219.478 332.667 217.4 334.181 215.649 336.112C211.797 340.359 209.177 345.86 207.437 351.293C205.687 356.749 204.783 362.453 204.41 368.168C204.004 374.234 204.659 380.232 205.032 386.286C205.449 393.086 206.669 399.671 207.347 406.437C207.392 406.934 205.89 407.34 205.449 407.08C204.941 407.205 204.399 407.205 204.331 406.945C203.349 403.104 203.066 399.016 202.58 395.085C202.117 391.222 201.756 387.336 201.541 383.451C200.886 371.557 201.282 359.177 205.585 347.927C207.663 342.494 210.645 336.846 215.084 332.983C215.333 332.769 215.57 332.565 215.83 332.362C217.818 331.967 219.851 331.639 221.737 331.413Z" fill="#F55E11"/>
<path d="M249.817 359.685C249.659 358.759 249.365 357.686 248.631 357.11C247.795 356.444 246.496 356.489 245.479 356.489C242.317 356.511 239.019 356.681 235.573 356.997C234.049 357.144 232.399 357.2 230.841 357.596C230.491 357.686 228.74 357.652 228.175 358.646C227.904 359.121 228.062 361.131 228.175 362.859C228.299 364.802 228.435 366.474 229.327 366.801C229.711 366.801 230.05 366.96 230.423 366.982C230.841 367.005 231.315 366.903 231.733 366.858C232.637 366.767 233.529 366.688 234.41 366.598C236.104 366.429 237.765 366.248 239.38 366.056C242.486 365.706 245.457 365.322 248.315 364.938C248.981 364.847 249.67 364.633 249.952 363.887C250.133 363.424 250.122 362.905 250.099 362.408C250.065 361.481 249.964 360.578 249.817 359.685Z" fill="#004DBE"/>
<path d="M211.3 334.553C210.148 334.621 211.12 327.968 212.114 326.624C213.763 324.41 216.677 323.744 219.275 323.473C222.279 323.156 228.368 326.263 228.288 330.114C226.515 326.918 220.901 323.461 217.818 327.223C216.474 328.86 217.863 331.413 216.982 332.757C215.83 334.486 212.453 334.497 211.3 334.553Z" fill="#50BCFF"/>
<path d="M267.133 429.772C265.314 431.139 249.501 433.782 239.03 433.985C235.269 434.064 232.208 433.827 230.705 433.116C227.407 431.568 225.363 416.851 225.792 401.794C226.108 390.657 229.655 380.909 236.545 377.791C239.663 376.38 242.701 375.702 245.581 375.691C246.824 375.679 248.032 375.803 249.207 376.029C259.486 377.983 267.133 388.477 268.771 402.031C271.018 420.747 269.618 427.92 267.133 429.772Z" fill="#50BCFF"/>
<path opacity="0.54" d="M249.207 376.018C245.073 376.459 242.204 379.407 241.504 380.683C237.72 387.573 236.681 396.18 236.444 404.189C236.161 413.417 236.41 424.588 239.019 433.986C235.258 434.065 232.196 433.827 230.694 433.116C227.396 431.568 225.352 416.851 225.781 401.794C226.097 390.657 229.644 380.909 236.534 377.792C239.651 376.38 242.69 375.702 245.57 375.691C246.824 375.668 248.032 375.804 249.207 376.018Z" fill="#004DBE"/>
<path d="M205.754 405.714C207.629 405.691 208.386 411.655 207.957 412.231C207.528 412.807 205.156 413.01 204.557 412.592C203.958 412.174 203.879 405.736 205.754 405.714Z" fill="#004DBE"/>
<path d="M345.962 433.816H341.738L356.004 307.558H367.739L345.962 433.816Z" fill="black"/>
<path d="M486.442 433.816H490.666L476.4 307.558H464.664L486.442 433.816Z" fill="black"/>
<path d="M456.961 433.816H461.185L446.931 307.558H435.184L456.961 433.816Z" fill="black"/>
<path d="M373.884 433.816H369.66L383.926 307.558H395.661L373.884 433.816Z" fill="black"/>
<path d="M499.533 163.938L477.247 293.235H425.074L447.36 163.938H499.533Z" fill="#004DBE"/>
<path opacity="0.45" d="M493.162 163.938L470.888 293.235H425.074L447.36 163.938H493.162Z" fill="#004DBE"/>
<path d="M477.247 293.235H354.004V310.641H477.247V293.235Z" fill="#004DBE"/>
<path opacity="0.45" d="M398.248 293.235H354.004V310.641H398.248V293.235Z" fill="#004DBE"/>
<path d="M319.498 354.399C319.498 354.399 297.212 358.815 302.408 364C307.615 369.185 337.254 374.143 338.688 372.166C340.112 370.19 344.517 355.483 344.517 355.483L323.937 346.187L319.498 354.399Z" fill="white"/>
<path d="M332.668 368.337C335.254 366.395 338.067 364.463 341.286 364.09C341.873 364.023 342.596 364.068 342.89 364.576C343.048 364.836 343.048 365.163 343.014 365.468C342.845 367.185 341.919 368.744 340.925 370.156C339.908 371.59 338.767 372.968 337.344 374.008C335.921 375.047 334.181 375.725 332.419 375.634C331.098 375.566 328.003 374.493 328.093 372.754C328.172 371.195 331.538 369.185 332.668 368.337Z" fill="#50BCFF"/>
<path d="M311.534 366.044C311.647 367.637 311.5 369.467 310.258 370.472C308.936 371.545 306.96 371.184 305.412 370.45C303.3 369.433 301.459 367.784 300.42 365.683C299.392 363.582 299.222 361.018 300.194 358.883C300.555 358.07 301.075 357.347 301.628 356.647C302.374 355.709 303.232 354.817 304.305 354.297C305.265 353.845 306.858 353.586 307.683 354.41C308.473 355.212 309.038 356.839 309.49 357.855C310.642 360.442 311.331 363.221 311.534 366.044Z" fill="#50BCFF"/>
<path opacity="0.24" d="M315.149 368.168C319.339 369.173 323.541 369.343 327.675 369.23C329.855 369.173 332.385 368.744 333.018 366.587C333.492 364.926 332.577 362.949 331.504 361.368C329.708 358.736 327.359 356.489 324.739 354.896C323.643 354.23 322.502 353.676 321.486 352.852C320.48 352.027 319.599 350.852 319.43 349.576C319.26 348.232 319.938 347.023 320.909 346.334C321.881 345.645 323.089 345.408 324.298 345.261C329.629 344.606 335.593 345.724 340.36 349.486C345.127 353.247 348.267 360.001 346.877 365.457C346.132 368.394 344.223 370.675 342.032 372.449C336.836 376.651 329.765 378.3 322.717 376.956C317.871 376.029 313.071 373.691 308.925 370.325C306.982 368.744 302.397 365.762 301.018 363.582C298.929 360.284 304.226 364.124 305.299 364.779C308.101 366.496 312.133 367.445 315.149 368.168Z" fill="#50BCFF"/>
<path d="M349.125 367.31C349.125 367.31 330.476 380.288 337.321 382.953C344.166 385.619 373.319 378.277 373.828 375.894C374.347 373.511 372.484 358.273 372.484 358.273L349.904 358.002L349.125 367.31Z" fill="white"/>
<path d="M366.768 374.81C368.361 371.986 370.157 369.106 372.958 367.468C373.466 367.163 374.144 366.926 374.63 367.276C374.878 367.456 375.002 367.75 375.104 368.044C375.646 369.693 375.409 371.477 375.059 373.172C374.697 374.9 374.212 376.617 373.319 378.142C372.427 379.667 371.105 380.977 369.456 381.598C368.214 382.061 364.95 382.332 364.34 380.694C363.797 379.215 366.079 376.03 366.768 374.81Z" fill="#50BCFF"/>
<path d="M346.493 381.169C347.239 382.581 347.837 384.32 347.103 385.732C346.313 387.246 344.358 387.709 342.653 387.652C340.315 387.573 337.954 386.794 336.169 385.28C334.385 383.767 333.199 381.485 333.233 379.136C333.244 378.255 333.425 377.374 333.651 376.515C333.956 375.363 334.385 374.2 335.164 373.296C335.853 372.494 337.22 371.613 338.304 372.053C339.343 372.471 340.518 373.736 341.343 374.482C343.421 376.391 345.183 378.661 346.493 381.169Z" fill="#50BCFF"/>
<path opacity="0.24" d="M350.65 381.666C354.886 380.898 358.817 379.384 362.555 377.622C364.521 376.696 366.678 375.284 366.384 373.059C366.158 371.342 364.521 369.907 362.905 368.891C360.206 367.197 357.156 366.078 354.118 365.683C352.853 365.514 351.576 365.468 350.322 365.118C349.069 364.768 347.792 364.045 347.137 362.938C346.437 361.775 346.584 360.397 347.194 359.38C347.804 358.364 348.82 357.652 349.871 357.042C354.49 354.309 360.409 352.931 366.283 354.467C372.156 356.003 377.747 360.928 378.662 366.496C379.159 369.49 378.323 372.347 377.024 374.843C373.941 380.773 368.124 385.122 361.143 386.715C356.332 387.81 351 387.596 345.861 386.173C343.455 385.506 338.056 384.614 335.91 383.168C332.668 380.977 339.072 382.377 340.315 382.547C343.534 382.965 347.612 382.219 350.65 381.666Z" fill="#50BCFF"/>
<path d="M448.704 259.304C448.704 259.304 455.165 289.88 436.539 290.366C417.913 290.852 367.762 292.795 367.762 292.795L344.008 362.102L315.556 351.778C315.556 351.778 335.978 275.332 343.67 269.029C351.362 262.727 400.282 258.841 409.713 259.078C419.156 259.304 448.704 259.304 448.704 259.304Z" fill="#D44459"/>
<path opacity="0.29" d="M448.704 259.304C448.704 259.304 455.165 289.88 436.539 290.366C417.913 290.852 367.762 292.795 367.762 292.795L344.008 362.102L315.556 351.778C315.556 351.778 335.978 275.332 343.67 269.029C351.362 262.727 400.282 258.841 409.713 259.078C419.156 259.304 448.704 259.304 448.704 259.304Z" fill="#663BFF"/>
<path d="M314.562 353.247L343.511 363.469L348.38 354.659L316.516 342.934L314.562 353.247Z" fill="#F59711"/>
<path opacity="0.3" d="M314.562 353.247L343.511 363.469L348.38 354.659L316.516 342.934L314.562 353.247Z" fill="#D44459"/>
<path opacity="0.27" d="M328.364 355.291C325.97 353.168 323.79 350.796 321.983 348.153C321.101 346.865 320.277 345.498 319.599 344.064L316.527 342.934L314.562 353.247L336.949 361.154C333.854 359.561 330.962 357.584 328.364 355.291Z" fill="#F59711"/>
<path d="M465.105 260.524C465.105 260.524 471.803 292.987 452.477 293.506C433.151 294.026 381.102 296.081 381.102 296.081L375.624 366.044L346.392 365.016C346.392 365.016 348.12 277.523 356.106 270.825C364.091 264.127 414.852 260.004 424.645 260.264C434.45 260.524 465.105 260.524 465.105 260.524Z" fill="#D44459"/>
<path opacity="0.1" d="M367.943 365.084C366.938 363.017 366.328 360.77 365.786 358.533C365.221 356.206 364.69 353.857 364.193 351.507C363.018 345.95 362.386 340.302 361.923 334.644C361.516 329.719 361.177 324.783 360.737 319.858C360.319 315.171 359.935 310.472 359.878 305.762C359.765 296.612 360.906 287.203 366.215 279.511C370.575 273.197 376.279 268.001 382.695 263.856C370.417 265.629 359.472 267.99 356.106 270.814C348.12 277.512 346.392 365.005 346.392 365.005L368.327 365.773C368.203 365.547 368.056 365.322 367.943 365.084Z" fill="#D44459"/>
<path opacity="0.1" d="M465.105 260.524C465.105 260.524 462.338 260.524 458.215 260.513C458.203 260.976 458.181 261.45 458.147 261.913C458.023 263.935 457.752 265.946 457.334 267.934C456.95 269.786 456.498 271.717 455.639 273.412C453.9 276.868 450.636 279.376 447.439 281.409C444.051 283.566 440.447 285.34 436.686 286.74C428.655 289.733 420.116 291.213 411.622 292.185C405.929 292.828 400.214 293.099 394.521 293.596C391.731 293.834 388.941 294.127 386.185 294.624C385.134 294.816 384.084 295.031 383.079 295.37C382.672 295.505 382.039 295.709 381.712 296.07C387.529 295.844 434.37 294.003 452.488 293.517C471.803 292.986 465.105 260.524 465.105 260.524Z" fill="#D44459"/>
<path d="M368.259 354.41C368.248 354.41 368.248 354.41 368.237 354.41C368.079 354.399 367.966 354.264 367.977 354.105L368.101 352.422C368.112 352.264 368.225 352.129 368.406 352.163C368.564 352.174 368.677 352.309 368.666 352.468L368.542 354.151C368.53 354.297 368.406 354.41 368.259 354.41Z" fill="#F59711"/>
<path d="M368.632 349.282C368.621 349.282 368.621 349.282 368.609 349.282C368.451 349.271 368.338 349.135 368.35 348.977L368.609 345.532C368.621 345.374 368.756 345.239 368.914 345.272C369.073 345.284 369.185 345.419 369.174 345.577L368.914 349.022C368.903 349.169 368.779 349.282 368.632 349.282ZM369.152 342.392C369.14 342.392 369.14 342.392 369.129 342.392C368.971 342.381 368.858 342.245 368.869 342.087L369.14 338.642C369.152 338.484 369.265 338.36 369.445 338.382C369.603 338.394 369.716 338.529 369.705 338.687L369.434 342.132C369.423 342.279 369.298 342.392 369.152 342.392ZM369.694 335.502C369.682 335.502 369.682 335.502 369.671 335.502C369.513 335.491 369.4 335.355 369.411 335.197C369.502 334.079 369.592 332.927 369.682 331.752C369.694 331.594 369.841 331.47 369.987 331.492C370.146 331.503 370.259 331.639 370.247 331.797C370.157 332.972 370.067 334.124 369.976 335.242C369.965 335.389 369.841 335.502 369.694 335.502ZM370.247 328.612C370.236 328.612 370.236 328.612 370.225 328.612C370.067 328.601 369.954 328.465 369.965 328.307L370.247 324.862C370.259 324.704 370.394 324.579 370.552 324.602C370.71 324.613 370.823 324.749 370.812 324.907L370.53 328.352C370.518 328.499 370.394 328.612 370.247 328.612ZM370.823 321.722C370.812 321.722 370.812 321.722 370.801 321.722C370.643 321.71 370.53 321.575 370.541 321.417L370.835 317.972C370.846 317.814 370.97 317.701 371.14 317.712C371.298 317.723 371.411 317.859 371.399 318.017L371.106 321.462C371.083 321.609 370.959 321.722 370.823 321.722ZM371.411 314.843C371.399 314.843 371.399 314.843 371.388 314.843C371.23 314.832 371.117 314.696 371.128 314.538L371.433 311.093C371.445 310.935 371.558 310.811 371.738 310.833C371.896 310.844 372.009 310.98 371.998 311.138L371.693 314.583C371.682 314.73 371.558 314.843 371.411 314.843ZM372.032 307.953C372.021 307.953 372.009 307.953 372.009 307.953C371.851 307.942 371.738 307.806 371.75 307.648C371.862 306.484 371.964 305.332 372.077 304.203C372.088 304.045 372.224 303.92 372.382 303.943C372.54 303.954 372.653 304.09 372.642 304.248C372.54 305.378 372.427 306.518 372.314 307.693C372.303 307.851 372.179 307.953 372.032 307.953ZM372.687 301.074C372.676 301.074 372.664 301.074 372.664 301.074C372.506 301.063 372.393 300.916 372.416 300.769C372.529 299.583 372.653 298.442 372.766 297.324C372.777 297.166 372.924 297.064 373.082 297.075C373.241 297.087 373.353 297.234 373.331 297.392C373.218 298.499 373.094 299.651 372.981 300.826C372.958 300.972 372.834 301.074 372.687 301.074ZM373.41 294.207C373.399 294.207 373.387 294.207 373.376 294.207C373.218 294.195 373.105 294.048 373.128 293.89C373.263 292.67 373.399 291.518 373.534 290.456C373.557 290.298 373.704 290.197 373.85 290.208C374.009 290.231 374.11 290.366 374.099 290.524C373.963 291.586 373.828 292.738 373.692 293.958C373.67 294.094 373.557 294.207 373.41 294.207ZM374.268 287.339C374.257 287.339 374.246 287.339 374.223 287.339C374.065 287.316 373.963 287.17 373.986 287.023C374.201 285.532 374.404 284.368 374.596 283.589C374.63 283.442 374.788 283.34 374.935 283.374C375.082 283.408 375.183 283.566 375.149 283.713C374.969 284.481 374.765 285.622 374.551 287.102C374.528 287.237 374.404 287.339 374.268 287.339ZM377.442 282.313C377.307 282.313 377.183 282.211 377.16 282.064C377.137 281.906 377.25 281.77 377.408 281.748C378.289 281.635 379.419 281.522 380.865 281.398C381.023 281.375 381.158 281.499 381.17 281.657C381.181 281.816 381.068 281.951 380.91 281.962C379.475 282.087 378.346 282.2 377.476 282.313C377.465 282.313 377.454 282.313 377.442 282.313ZM384.332 281.68C384.186 281.68 384.061 281.567 384.05 281.42C384.039 281.262 384.152 281.127 384.31 281.115C385.394 281.036 386.546 280.957 387.766 280.867C387.936 280.844 388.06 280.968 388.071 281.127C388.082 281.285 387.97 281.42 387.811 281.432C386.591 281.511 385.439 281.601 384.366 281.68C384.355 281.68 384.344 281.68 384.332 281.68ZM391.245 281.206C391.098 281.206 390.974 281.093 390.963 280.946C390.951 280.788 391.076 280.652 391.223 280.652C392.341 280.584 393.493 280.505 394.679 280.438C394.86 280.438 394.973 280.551 394.984 280.697C394.995 280.855 394.871 280.991 394.724 281.002C393.538 281.07 392.386 281.149 391.268 281.217C391.256 281.206 391.245 281.206 391.245 281.206ZM398.147 280.788C398 280.788 397.875 280.675 397.864 280.517C397.853 280.358 397.977 280.223 398.135 280.223L401.592 280.02C401.738 280.02 401.885 280.133 401.885 280.291C401.897 280.449 401.772 280.584 401.614 280.584L398.158 280.788H398.147ZM405.048 280.381C404.901 280.381 404.777 280.268 404.766 280.11C404.754 279.952 404.879 279.816 405.037 279.816L408.482 279.613C408.64 279.602 408.775 279.726 408.775 279.884C408.787 280.042 408.662 280.178 408.504 280.178L405.059 280.381H405.048ZM411.949 279.986C411.803 279.986 411.678 279.873 411.667 279.715C411.656 279.557 411.78 279.421 411.938 279.421L415.394 279.218C415.553 279.206 415.688 279.331 415.688 279.489C415.688 279.647 415.575 279.782 415.417 279.782L411.961 279.986H411.949ZM418.851 279.579C418.704 279.579 418.58 279.466 418.568 279.308C418.557 279.15 418.681 279.014 418.839 279.014C420.014 278.947 421.166 278.868 422.285 278.8C422.443 278.777 422.578 278.913 422.59 279.06C422.601 279.218 422.477 279.353 422.33 279.353C421.2 279.421 420.048 279.5 418.873 279.568C418.862 279.579 418.851 279.579 418.851 279.579ZM425.752 279.15C425.605 279.15 425.481 279.037 425.47 278.89C425.459 278.732 425.571 278.596 425.73 278.585C426.927 278.506 428.079 278.427 429.175 278.348C429.333 278.325 429.468 278.45 429.48 278.608C429.491 278.766 429.378 278.901 429.22 278.913C428.113 278.992 426.961 279.071 425.763 279.15C425.763 279.15 425.763 279.15 425.752 279.15ZM432.654 278.664C432.507 278.664 432.383 278.551 432.371 278.404C432.36 278.246 432.473 278.111 432.631 278.099C433.885 277.998 435.037 277.907 436.076 277.817C436.246 277.794 436.37 277.919 436.381 278.077C436.392 278.235 436.279 278.371 436.121 278.382C435.082 278.472 433.919 278.574 432.665 278.664C432.676 278.664 432.665 278.664 432.654 278.664ZM439.555 278.009C439.419 278.009 439.295 277.907 439.273 277.761C439.25 277.602 439.363 277.467 439.521 277.444C441.34 277.218 441.825 277.049 441.95 276.97C442.176 276.834 442.413 276.676 442.661 276.518C442.785 276.428 442.966 276.462 443.057 276.597C443.147 276.721 443.113 276.902 442.977 276.993C442.729 277.162 442.48 277.32 442.243 277.467C442.04 277.591 441.543 277.772 439.589 278.02C439.578 278.009 439.555 278.009 439.555 278.009ZM445.485 274.858C445.406 274.858 445.338 274.824 445.282 274.767C445.169 274.654 445.18 274.474 445.293 274.372C446.14 273.547 446.886 272.689 447.496 271.797C447.586 271.661 447.767 271.639 447.891 271.729C448.015 271.819 448.049 272 447.959 272.124C447.315 273.039 446.558 273.931 445.677 274.779C445.621 274.835 445.553 274.858 445.485 274.858Z" fill="#F59711"/>
<path d="M449.201 269.526C449.167 269.526 449.133 269.515 449.099 269.504C448.953 269.447 448.885 269.278 448.941 269.142C449.145 268.611 449.303 268.081 449.416 267.561C449.45 267.414 449.608 267.313 449.754 267.346C449.913 267.38 450.003 267.527 449.969 267.685C449.856 268.239 449.687 268.803 449.472 269.357C449.427 269.459 449.314 269.526 449.201 269.526Z" fill="#F59711"/>
<path d="M345.804 365.909L376.482 366.824L378.436 356.94L344.528 355.483L345.804 365.909Z" fill="#F59711"/>
<path opacity="0.27" d="M359.562 363.65C356.625 362.362 353.847 360.758 351.305 358.793C350.074 357.833 348.865 356.782 347.792 355.619L344.517 355.483L345.793 365.909L369.536 366.62C366.102 366.044 362.736 365.039 359.562 363.65Z" fill="#F59711"/>
<path d="M400.428 195.904C400.428 195.904 380.526 218.415 377.6 219.353C374.675 220.29 343.794 225.542 343.794 225.542L342.145 235.426C342.145 235.426 379.588 239.085 383.881 236.533C388.161 233.969 413.497 212.575 413.497 212.575L400.428 195.904Z" fill="#FFA18B"/>
<path d="M386.614 207.448C386.614 207.448 403.127 181.48 410.356 179.605C417.585 177.73 431.354 183.276 423.64 197.688C415.925 212.101 406.098 222.391 406.098 222.391C406.098 222.391 391.267 220.584 386.614 207.448Z" fill="#50BCFF"/>
<path opacity="0.38" d="M413.124 179.255C411.136 181.886 409.442 184.733 407.872 187.624C405.929 191.216 404.201 194.921 402.529 198.649C400.835 202.433 399.265 206.284 397.954 210.215C397.051 212.937 396.283 215.704 395.684 218.506C400.891 221.759 406.11 222.391 406.11 222.391C406.11 222.391 415.948 212.101 423.651 197.688C430.451 184.959 420.522 179.153 413.124 179.255Z" fill="#50BCFF"/>
<path d="M467.24 224.492C465.184 194.266 463.795 186.755 460.271 182.327C456.769 177.944 443.847 176.024 434.743 175.663C425.639 175.301 412.356 177.877 408.572 180.475C404.777 183.072 402.518 194.085 403.094 207.786C403.602 219.658 406.098 232.263 405.997 237.764C405.816 247.964 403.805 251.895 402.348 259.485C413.723 267.403 457.763 271.65 467.206 269.752C468.143 259.428 468.234 239.12 467.24 224.492Z" fill="white"/>
<path d="M418.896 182.688C418.614 184.055 419.167 185.523 420.116 186.563C421.065 187.602 422.465 188.099 423.798 188.471C426.385 189.183 432.247 188.415 434.879 185.467C439.261 195.881 444.322 206.962 454.555 212.553C457.39 214.1 460.44 215.411 463.614 215.829C466.822 216.247 470.188 215.693 472.673 213.795C475.598 211.559 476.92 207.719 476.92 203.946C476.92 200.185 475.745 196.48 474.412 192.911C472.119 186.8 469.194 180.746 464.416 176.318C457.232 169.642 447.055 167.688 437.657 167.372C429.751 167.101 421.867 167.801 414.638 170.354C407.499 172.873 400.959 177.323 396.689 183.603C391.166 191.736 389.799 202.907 393.177 212.598C393.707 212.666 394.588 212.779 395.04 212.485C400.089 209.311 402.653 203.201 405.805 197.903C409.205 192.199 413.79 186.89 418.896 182.688Z" fill="#50BCFF"/>
<path opacity="0.24" d="M450.263 250.742C448.941 254.854 447.428 259.112 444.333 262.117C439.137 267.166 430.914 267.448 424.882 271.435C426.452 275.829 431.648 277.557 436.2 278.596C445.18 280.641 454.77 282.211 463.456 279.15C466.392 278.122 469.25 276.473 470.944 273.864C472.277 271.808 472.786 269.334 473.17 266.906C475.09 254.752 474.536 242.361 473.836 230.083C473.102 217.184 472.21 204.285 471.114 191.408C470.798 187.737 470.414 183.908 468.358 180.847C467.127 179.006 465.252 177.492 463.162 176.736C459.909 175.538 460.485 177.956 460.677 180.463C461.106 186.235 461.151 192.03 460.858 197.801C460.27 209.255 458.373 220.607 455.662 231.744C454.115 238.148 452.285 244.473 450.263 250.742Z" fill="#50BCFF"/>
<path opacity="0.24" d="M427.559 267.617C422.759 265.889 418.162 264.297 413.677 261.913C411.576 260.795 409.419 259.496 408.436 257.508C410.933 257.192 413.474 257.474 415.97 257.745C420.025 258.186 424.069 258.638 428.124 259.078C423.854 257.644 419.867 255.283 415.993 253.08C414.039 251.973 408.583 249.714 410.165 246.597C410.695 245.535 411.904 245.049 412.842 244.417C414.039 243.592 414.197 242.44 413.497 241.175C412.57 239.515 410.775 238.453 409.238 237.459C407.521 236.341 405.974 235.121 404.506 233.686C403.692 232.884 402.89 232.026 402.168 231.111C401.851 233.607 402.405 236.217 402.292 238.758C402.179 241.311 401.377 243.796 400.801 246.292C399.491 251.928 399.299 257.768 400.236 263.438C400.405 264.477 400.631 265.539 401.287 266.409C402.032 267.403 403.263 268.035 404.483 268.555C410.786 271.254 417.924 272.034 424.927 272.61C429.118 272.937 432.269 269.312 427.559 267.617Z" fill="#50BCFF"/>
<path d="M355.337 221.939C356.501 219.036 358.884 216.529 361.663 214.62C362.51 214.033 363.425 213.491 364.43 213.197C366.452 212.587 368.813 212.881 370.722 213.321C373.161 213.886 375.409 214.891 377.68 215.761C379.803 216.574 381.927 217.387 384.05 218.212C384.536 218.404 385.134 218.788 385.665 218.856C390.003 219.42 417.021 222.899 421.878 223.058C426.848 217.794 434.393 203.743 434.393 203.743C434.393 203.743 447.846 205.38 451.889 213.14C451.935 212.926 435.545 236.352 433.105 237.64C430.666 238.927 419.608 237.086 406.245 233.63C396.136 231.009 387.382 228.287 383.734 227.113C383.203 227.259 382.604 227.361 381.938 227.406C374.867 227.903 375.94 223.882 375.601 223.645L375.782 223.408C374.415 223.893 373.037 224.345 371.648 224.752C371.083 224.91 370.338 225.012 370.1 224.571C369.908 224.221 370.191 223.792 370.462 223.453C371.365 222.312 372.382 221.239 373.466 220.234C371.185 221.759 368.892 223.272 366.61 224.797C366.158 225.102 365.526 225.407 365.119 225.136C364.713 224.865 364.882 224.255 365.119 223.803C366.26 221.623 367.977 219.635 370.089 218.088C368.553 219.251 367.005 220.403 365.469 221.567C364.419 222.357 363.357 223.159 362.228 223.871C361.211 224.515 359.946 225.102 358.873 224.741C358.737 224.695 358.591 224.616 358.545 224.492C358.511 224.368 358.568 224.232 358.636 224.119C359.957 221.555 362.295 219.477 364.588 217.478C362.555 219.036 360.511 220.607 358.478 222.165C357.687 222.764 356.716 223.419 355.778 223.193C355.575 223.148 355.383 223.046 355.281 222.888C355.112 222.606 355.213 222.244 355.337 221.939Z" fill="#FFC9B0"/>
<path d="M430.112 222.482C428.497 220.618 427.481 218.652 426.746 216.597C430.677 210.655 434.393 203.731 434.393 203.731C434.393 203.731 447.846 205.369 451.89 213.129C451.924 212.994 445.045 222.787 439.544 230.038C435.749 228.739 432.304 225.023 430.112 222.482Z" fill="#FFC9B0"/>
<path opacity="0.3" d="M375.488 222.312C377.149 222.515 378.583 223.193 380.176 223.577C381.712 223.95 383.316 224.085 384.875 224.356C389.077 225.102 393.053 226.57 397.017 227.869C404.483 230.32 412.108 232.41 419.913 234.082C424.645 235.098 429.649 236.442 434.664 236.137C433.964 236.928 433.422 237.459 433.106 237.617C430.666 238.905 419.608 237.064 406.245 233.607C396.136 230.987 387.382 228.265 383.734 227.09C383.203 227.237 382.604 227.338 381.938 227.384C374.867 227.881 375.94 223.859 375.601 223.622L375.782 223.385C374.415 223.871 373.037 224.323 371.648 224.729C371.287 224.831 370.857 224.91 370.53 224.842C372.134 223.859 373.794 223.125 375.488 222.312Z" fill="#FFC9B0"/>
<path d="M424.894 214.53C426.148 212.79 436.2 197.056 439.657 191.205C441.475 188.11 443.52 184.992 446.547 182.677C448.693 181.028 454.759 177.3 459.118 182.361C459.344 182.632 459.57 182.914 459.774 183.196C459.999 183.524 460.214 183.852 460.406 184.19C463.298 189.206 462.451 196.084 460.734 201.89C460.395 203.031 459.988 204.138 459.514 205.234C456.487 212.271 451.404 221.036 446.389 227.429C439.691 226.932 428.248 220.878 424.894 214.53Z" fill="#50BCFF"/>
<path opacity="0.38" d="M459.932 202.263C458.644 203.991 457.311 205.674 455.922 207.323C453.584 210.091 451.042 212.7 448.478 215.264C445.96 217.783 443.384 220.223 440.673 222.538C439.725 223.351 438.753 224.142 437.771 224.91C440.854 226.322 443.938 227.248 446.389 227.429C451.415 221.036 456.498 212.271 459.514 205.234C459.988 204.138 460.406 203.031 460.734 201.89C460.847 201.506 460.96 201.111 461.061 200.716C460.689 201.224 460.316 201.743 459.932 202.263Z" fill="#50BCFF"/>
<path d="M420.443 167.225L435.952 164.977L437.646 177.764C437.77 178.69 437.499 179.605 436.901 180.339C435.568 181.954 432.755 184.575 428.124 185.117C423.369 185.67 422.77 183.49 422.838 182.135C422.906 180.881 422.736 179.616 422.51 178.362L420.443 167.225Z" fill="#FFC9B0"/>
<path d="M417.665 175.99C430.462 176.476 435.952 164.175 435.579 163.656C435.127 163.012 433.896 163.046 432.913 163.215C425.921 164.401 416.174 167.586 415.067 170.184C413.948 172.794 415.857 175.922 417.665 175.99Z" fill="#FFC9B0"/>
<path d="M447.225 153.061C446.4 153.027 445.429 152.97 444.807 152.383C444.22 151.83 444.096 150.926 443.757 150.248C442.627 148.023 440.086 146.837 437.793 148.407C432.179 152.248 434.822 158.754 435.331 159.781C436.054 161.25 437.59 162.639 439.205 163.125C439.747 163.294 440.741 163.486 440.899 162.73C440.99 162.278 440.47 161.849 440.402 161.453C441.487 161.871 442.379 162.368 443.61 162.413C444.999 162.458 447.315 162.063 448.015 160.73C448.749 159.33 447.338 158.731 446.287 158.155C448.083 158.223 449.845 155.817 450.478 154.45C451.302 152.677 448.332 153.106 447.225 153.061Z" fill="black"/>
<path d="M396.881 124.439C396.316 125.331 396.057 126.359 395.876 127.387C395.402 129.985 395.345 132.662 395.718 135.271C395.876 136.412 396.136 137.575 396.757 138.558C397.627 139.936 399.106 140.828 400.609 141.54C401.535 141.98 402.619 142.376 403.579 142.003C404.223 141.754 404.675 141.201 405.003 140.602C406.109 138.546 405.793 136.084 405.42 133.791C405.07 131.6 404.698 129.375 403.783 127.342C403.105 125.828 402.088 124.382 400.71 123.366C399.185 122.259 397.841 122.914 396.881 124.439Z" fill="black"/>
<path d="M421.132 172.093C411.859 174.33 406.844 172.093 404.122 168.965C403.918 168.727 403.726 168.49 403.546 168.242C400.993 164.74 398.915 156.924 398.305 153.931C398.259 153.671 398.214 153.422 398.158 153.151C398.158 153.117 398.158 153.084 398.146 153.061C397.378 148.791 397.107 144.115 397.265 139.247C398.011 118.576 415.372 109.664 430.123 116.464C435.692 119.04 440.47 123.863 443.282 129.668C443.497 130.109 443.712 130.561 443.904 131.035C452.725 151.785 438.742 167.869 421.132 172.093Z" fill="#FFC9B0"/>
<g opacity="0.21">
<g opacity="0.21">
<path opacity="0.21" d="M405.895 167.801C405.466 168.355 404.845 168.727 404.133 168.953C403.93 168.716 403.738 168.479 403.557 168.23C401.004 164.729 398.926 156.913 398.316 153.919C398.271 153.659 398.226 153.411 398.169 153.14C399.355 153.275 400.451 154.01 401.332 154.812C404.235 157.489 406.087 161.069 406.46 164.763C406.573 165.824 406.55 166.943 405.895 167.801Z" fill="#D44459"/>
<path opacity="0.21" d="M433.331 164.379C433.546 164.209 433.76 164.051 433.952 163.87C437.251 161.024 440.978 155.162 437.635 150.757C435.986 148.588 432.891 148 430.462 148.927C428.022 149.853 426.193 152.022 425.007 154.428C424.126 156.223 423.538 158.245 423.685 160.29C423.843 162.334 424.826 164.401 426.509 165.486C428.734 166.931 431.388 165.847 433.331 164.379Z" fill="#D44459"/>
</g>
</g>
<path d="M452.85 135.598C452.578 137.349 452.183 139.077 451.731 140.794C451.551 141.438 450.805 145.448 450.24 145.629C449.992 145.708 449.755 145.753 449.506 145.742C448.975 145.708 448.501 145.403 448.106 145.019C447.326 144.273 446.592 143.302 445.327 143.494C443.508 143.731 442.142 147.842 440.289 147.91C438.03 147.989 437.138 145.821 436.483 143.697C436.596 141.483 436.381 140.309 437.002 135.632C437.036 135.497 437.036 135.35 437.047 135.214C436.935 135.011 436.822 134.842 436.72 134.717C435.319 132.763 432.981 132.052 430.914 131.001C429.547 130.312 428.463 129.228 427.322 128.245C426.001 127.104 424.849 125.794 424.137 124.201C423.459 122.677 423.064 120.937 422.59 119.344C419.856 122.564 416.264 125.444 412.333 127.24C409.623 128.505 406.584 129.725 403.67 130.436C401.377 131.001 397.819 131.589 395.854 129.939C394.046 128.426 394.137 126.167 394.566 124.043C395.232 120.847 397.458 118.689 399.943 116.645C406.72 111.076 415.394 107.349 424.306 106.908C426.26 106.818 428.226 106.874 430.169 107.123C432.733 107.439 435.252 108.061 437.646 109.009C438.471 109.326 439.273 109.676 440.063 110.082C440.685 110.41 441.295 110.737 441.904 111.11C443.938 112.33 445.858 113.9 447.496 115.696C449.947 118.328 451.822 121.502 452.635 124.902C452.646 124.947 452.646 124.992 452.669 125.037C453.482 128.516 453.392 132.119 452.85 135.598Z" fill="black"/>
<path d="M447.518 115.707C446.027 116.272 443.621 114.657 442.367 114.431C438.877 113.81 442.639 118.78 442.288 120.033C441.893 121.411 440.108 121.468 438.889 121.332C436.878 121.129 435.85 119.773 434.145 119.005C432.879 118.441 431.614 119.039 431.253 120.406C430.993 121.377 432.213 123.851 431.501 124.529C430.428 125.511 427.571 123.919 426.803 123.23C425.368 121.953 424.272 119.502 425.063 117.627C425.278 117.04 426.87 116.859 427.514 116.509C428.847 115.82 430.067 114.95 431.377 114.25C433.241 113.267 435.037 111.923 437.036 111.133C437.928 110.771 438.99 110.398 440.086 110.105C440.707 110.432 441.317 110.76 441.927 111.133C443.96 112.341 445.869 113.911 447.518 115.707Z" fill="#004DBE"/>
<path d="M437.669 109.02C436.708 109.484 435.748 109.958 434.732 110.331C432.507 111.155 430.394 112.081 428.327 113.222C426.543 114.205 424.702 115.188 423.143 116.498C422.217 117.277 421.098 119.118 420.319 119.118C418.467 121.829 414.604 121.705 411.915 120.508C410.334 119.807 409.927 118.667 411.723 117.752C413.677 116.758 416.083 116.78 418.105 115.865C419.698 115.131 421.144 113.855 420.522 112.048C420.127 110.929 418.828 109.224 420.793 108.806C422.284 108.49 424.024 109.947 425.504 110.206C426.904 110.455 427.537 110.173 428.35 109.088C428.982 108.241 429.344 107.609 430.191 107.157C432.755 107.439 435.274 108.06 437.669 109.02Z" fill="#004DBE"/>
<path d="M405.477 150.508C405.715 151.988 405.161 153.298 404.224 153.445C403.297 153.58 402.337 152.496 402.1 151.016C401.863 149.536 402.416 148.226 403.354 148.079C404.291 147.933 405.24 149.017 405.477 150.508Z" fill="black"/>
<path d="M424.826 147.989C425.075 149.525 424.408 150.903 423.324 151.061C422.251 151.22 421.166 150.113 420.918 148.576C420.669 147.04 421.336 145.662 422.42 145.504C423.505 145.346 424.578 146.453 424.826 147.989Z" fill="black"/>
<path d="M410.334 159.939C412.469 159.781 414.615 159.284 416.547 158.392C418.478 157.488 420.116 156.223 421.686 154.834C421.822 154.721 422.059 154.868 421.946 155.026C419.506 158.528 414.638 160.527 410.323 160.369C410.052 160.346 410.052 159.962 410.334 159.939Z" fill="#C72C19"/>
<path d="M410.469 156.359C409.227 156.077 407.962 155.139 407.996 153.795C408.007 153.196 408.278 152.586 408.809 152.259C409.216 151.999 409.724 151.92 410.142 151.671C411.204 151.05 410.684 149.943 410.39 149.028C409.961 147.707 409.634 146.159 408.854 144.985C408.741 144.826 408.414 144.872 408.436 145.098C408.515 145.832 408.798 146.555 409.046 147.244C409.317 148 409.577 148.757 409.826 149.514C409.95 149.898 410.3 150.508 410.063 150.892C409.927 151.118 409.588 151.231 409.363 151.333C408.854 151.547 408.391 151.717 408.018 152.135C407.352 152.891 407.239 154.021 407.668 154.902C408.165 155.918 409.306 156.483 410.424 156.619C410.594 156.63 410.616 156.393 410.469 156.359Z" fill="#C72C19"/>
<path d="M405.071 138.467C405.409 139.303 404.178 139.201 402.337 139.721C400.496 140.241 400.383 141.845 399.83 141.777C399.276 141.709 399.355 138.896 401.727 137.925C403.546 137.191 404.856 137.914 405.071 138.467Z" fill="black"/>
<path d="M416.558 136.457C416.388 137.213 418.659 136.897 421.178 136.728C423.696 136.558 425.504 138.354 425.786 137.699C426.068 137.044 424.272 134.92 421.223 134.853C418.173 134.785 416.671 135.96 416.558 136.457Z" fill="black"/>
<path d="M440.797 145.052C442.13 141.641 444.897 138.908 448.862 140.139C450.15 140.534 451.121 141.641 451.562 142.872C452.002 144.104 451.991 145.448 451.799 146.735C451.302 149.988 449.562 153.151 446.716 154.97C445.632 155.659 444.276 156.144 443.056 155.726C441.385 155.139 440.526 153.366 440.142 151.807C439.668 149.898 439.916 147.323 440.797 145.052Z" fill="#FFC9B0"/>
<path opacity="0.3" d="M445.236 141.901C444.265 142.872 443.734 144.217 442.808 145.165C442.153 145.832 441.735 146.814 440.616 145.685C440.605 145.674 440.594 145.651 440.583 145.64C440.65 145.436 440.718 145.233 440.797 145.041C442.04 141.845 444.547 139.247 448.128 139.936C447.055 140.354 446.072 141.054 445.236 141.901Z" fill="#FFC9B0"/>
<path d="M449.065 143.358C448.692 143.098 448.241 142.997 447.789 143.019C446.75 143.087 445.857 143.787 445.304 144.601C444.728 145.448 444.332 146.453 444.016 147.413C443.689 148.418 443.53 149.48 443.598 150.542C443.61 150.757 443.982 150.745 443.982 150.531C444.005 148.791 444.705 147.029 445.564 145.516C445.699 145.29 445.846 145.064 446.015 144.849C446.546 145.572 446.84 146.43 446.896 147.311C446.964 148.373 446.704 149.345 446.366 150.339C446.332 150.44 446.467 150.519 446.535 150.429C447.811 148.678 447.732 146.148 446.298 144.51C446.603 144.194 446.964 143.934 447.405 143.81C448.094 143.607 449.054 143.821 449.46 144.431C449.54 144.544 449.754 144.454 449.72 144.318C449.596 143.934 449.415 143.595 449.065 143.358Z" fill="#C72C19"/>
<path d="M132.346 433.816H126.992L145.087 251.352H159.997L132.346 433.816Z" fill="black"/>
<path d="M432.202 433.816H437.556L419.461 251.352H404.551L432.202 433.816Z" fill="black"/>
<path d="M427.932 235.505H136.627V255.452H427.932V235.505Z" fill="#004DBE"/>
<path opacity="0.45" d="M427.932 235.505H136.627V243.31H427.932V235.505Z" fill="#004DBE"/>
<path d="M434.258 229.756H130.279V239.617H434.258V229.756Z" fill="#004DBE"/>
<path d="M229.791 164.977H309.072C310.631 164.977 312.02 165.938 312.562 167.395L333.865 224.266H248.45L227.486 168.298C226.876 166.694 228.074 164.977 229.791 164.977Z" fill="#94D5FF"/>
<path d="M245.547 230.189L371.704 230.189V224.27L245.547 224.27V230.189Z" fill="#94D5FF"/>
<path d="M356.681 229.383C359.889 228.75 366.09 227.18 369.615 224.266H371.704V230.185H352.073C353.632 229.948 355.179 229.688 356.681 229.383Z" fill="#50BCFF"/>
<path d="M245.552 230.189H330.967V224.27H245.552V230.189Z" fill="#50BCFF"/>
<path opacity="0.8" d="M321.858 226.073H297.291V228.615H321.858V226.073Z" fill="#50BCFF"/>
<path opacity="0.8" d="M254.008 226.073H248.326V228.615H254.008V226.073Z" fill="#50BCFF"/>
<path opacity="0.8" d="M261.553 226.073H255.872V228.615H261.553V226.073Z" fill="#50BCFF"/>
<path d="M226.888 164.977H306.169C307.728 164.977 309.117 165.938 309.659 167.395L330.962 224.266H245.547L224.583 168.298C223.985 166.694 225.171 164.977 226.888 164.977Z" fill="#50BCFF"/>
<path opacity="0.51" d="M226.887 164.977H293.687C261.202 165.802 243.841 166.785 237.165 167.767C230.49 168.75 225.994 170.23 227.158 175.154L224.594 168.298C223.984 166.694 225.17 164.977 226.887 164.977Z" fill="#94D5FF"/>
<path opacity="0.35" d="M245.13 219.556C262.615 224.3 285.013 223.125 298.974 210.317C306.384 203.528 309.987 193.148 309.852 183.231C309.773 177.639 308.733 170.738 306.136 164.977H306.169C307.728 164.977 309.117 165.938 309.66 167.395L330.963 224.266H245.548L243.616 219.116C244.124 219.274 244.633 219.421 245.13 219.556Z" fill="#50BCFF"/>
<path opacity="0.46" d="M324.197 227.226C324.197 228.129 324.931 228.852 325.823 228.852C326.727 228.852 327.45 228.118 327.45 227.226C327.45 226.322 326.715 225.599 325.823 225.599C324.931 225.599 324.197 226.322 324.197 227.226Z" fill="#50BCFF"/>
<path opacity="0.8" d="M324.739 227.226C324.739 227.824 325.224 228.321 325.834 228.321C326.433 228.321 326.93 227.836 326.93 227.226C326.93 226.627 326.444 226.13 325.834 226.13C325.224 226.141 324.739 226.627 324.739 227.226Z" fill="#50BCFF"/>
<path d="M287.035 205.098L281.026 200.275C280.45 199.812 279.761 199.62 279.162 199.756L272.916 201.134C271.414 201.461 269.742 199.778 270.092 198.287L271.515 192.052C271.651 191.453 271.459 190.764 271.007 190.188L266.229 184.145C265.088 182.7 265.811 180.938 267.472 181.175L274.362 182.146C275.017 182.237 275.593 181.999 275.909 181.514L279.207 176.408C279.998 175.188 282.122 175.776 282.799 177.413L285.634 184.247C285.906 184.902 286.448 185.456 287.103 185.727L293.914 188.607C295.552 189.296 296.128 191.431 294.897 192.21L289.757 195.463C289.272 195.768 289.023 196.356 289.113 197.011L290.028 203.901C290.243 205.539 288.47 206.262 287.035 205.098Z" fill="#414379"/>
<path d="M287.001 202.67L280.506 197.463C280.314 197.304 280.077 197.237 279.874 197.282L273.119 198.761C272.611 198.874 272.046 198.298 272.159 197.79L273.695 191.058C273.741 190.855 273.673 190.618 273.526 190.426L268.364 183.897C267.98 183.4 268.228 182.813 268.782 182.892L276.226 183.942C276.451 183.976 276.643 183.897 276.756 183.727L280.314 178.204C280.586 177.786 281.308 177.989 281.534 178.543L284.595 185.93C284.686 186.156 284.878 186.337 285.092 186.427L292.457 189.545C293.01 189.782 293.214 190.505 292.796 190.764L287.238 194.277C287.069 194.379 286.99 194.582 287.024 194.797L288.018 202.24C288.097 202.828 287.487 203.065 287.001 202.67Z" fill="#FFD245"/>
<path d="M282.754 194.006L280.506 192.199C280.439 192.142 280.36 192.12 280.292 192.142L277.954 192.662C277.773 192.696 277.581 192.504 277.626 192.323L278.157 189.985C278.168 189.917 278.146 189.838 278.1 189.77L276.316 187.511C276.18 187.342 276.271 187.139 276.463 187.161L279.038 187.523C279.117 187.534 279.185 187.511 279.219 187.444L280.45 185.535C280.54 185.388 280.789 185.456 280.868 185.659L281.93 188.212C281.963 188.291 282.031 188.358 282.099 188.381L284.652 189.465C284.844 189.544 284.912 189.793 284.765 189.883L282.844 191.103C282.788 191.137 282.754 191.205 282.765 191.284L283.104 193.859C283.127 194.063 282.924 194.142 282.754 194.006Z" fill="white"/>
<path d="M262.841 205.618C264.614 211.83 270.442 216.631 275.864 216.337C281.286 216.043 284.245 210.78 282.472 204.567C280.698 198.355 274.87 193.554 269.448 193.848C264.015 194.142 261.067 199.417 262.841 205.618Z" fill="white"/>
<path d="M264.625 205.527C266.071 210.599 270.838 214.53 275.277 214.293C279.705 214.055 282.122 209.752 280.676 204.68C279.23 199.609 274.464 195.678 270.025 195.915C265.597 196.141 263.18 200.456 264.625 205.527Z" fill="#D44459"/>
<path d="M278.699 204.33C278.597 204.082 278.338 204.003 278.112 204.172C277.355 204.793 276.485 203.223 276.124 202.771C275.356 201.834 274.588 200.896 273.82 199.959C273.526 199.597 272.769 199.767 272.701 200.253C272.611 200.908 272.656 201.551 272.747 202.195C272.634 202.026 272.543 201.856 272.43 201.698C272.012 201.122 271.346 200.557 270.589 200.862C269.787 201.179 269.753 202.116 269.753 202.85C269.765 204.658 270.239 206.42 270.77 208.125C270.905 208.566 271.052 208.995 271.199 209.424C271.323 209.808 271.402 210.283 271.583 210.655C271.549 210.644 271.527 210.633 271.493 210.61C271.335 210.52 271.199 210.384 271.064 210.271C270.77 210.012 270.499 209.729 270.239 209.436C269.64 208.747 269.155 207.933 268.804 207.097C268.533 206.42 268.025 205.234 268.567 204.59C268.838 204.274 268.42 203.856 268.115 204.138C266.952 205.155 267.72 207.097 268.251 208.25C268.59 209.006 269.053 209.695 269.584 210.339C270.036 210.881 270.6 211.536 271.289 211.785C271.945 212.022 272.735 211.785 272.814 210.994C272.859 210.588 272.69 210.147 272.588 209.752C272.453 209.244 272.317 208.747 272.17 208.25C271.651 206.42 271.064 204.59 271.109 202.658C271.109 202.534 271.109 202.399 271.131 202.274V202.263C271.199 202.331 271.278 202.41 271.312 202.466C271.628 202.884 271.888 203.347 272.148 203.811C272.656 204.748 273.04 205.731 273.323 206.747C273.537 207.527 274.576 207.301 274.644 206.567C274.78 205.155 274.328 203.811 274.102 202.432C274.768 203.28 275.446 204.115 276.18 204.895C276.621 205.358 277.253 205.742 277.92 205.584C278.485 205.448 278.948 204.917 278.699 204.33Z" fill="#FFD245"/>
<path d="M203.506 181.796C200.061 178.961 199.779 173.686 200.987 169.721C201.609 167.688 202.241 165.52 202.512 163.407C202.738 161.668 202.908 159.725 202.286 158.042C202.749 158.799 203.292 159.318 203.766 160.075C204.5 161.239 204.963 162.481 205.393 163.78C206.07 165.813 206.579 167.79 206.579 169.947C206.579 172.003 206.07 173.991 205.731 176.013C205.506 177.357 205.336 178.724 204.884 180.011C204.737 180.373 204.071 182.259 203.506 181.796Z" fill="#94D5FF"/>
<path d="M200.4 182.146C196.266 180.463 193.318 177.73 191.861 173.889C191.229 172.218 190.811 170.512 190.506 168.761C190.359 167.914 190.122 167.011 190.099 166.141C190.11 166.627 190.54 167.044 190.856 167.383C191.556 168.151 192.347 168.773 193.138 169.439C194.007 170.173 194.809 170.896 195.758 171.529C196.763 172.206 197.859 172.85 198.774 173.675C200.57 175.279 202.038 177.334 202.659 179.684C202.885 180.542 202.795 181.649 202.434 181.966C201.993 182.361 201.135 182.44 200.4 182.146Z" fill="#94D5FF"/>
<path d="M203.382 181.661C202.749 180.712 203.766 178.893 204.297 178.159C205.596 176.34 207.573 174.85 209.538 173.799C211.718 172.624 214.101 171.845 216.428 171.02C217.422 170.67 218.472 170.365 219.342 169.767C219.805 169.45 220.517 168.987 220.652 168.4C220.641 170.964 218.789 173.2 217.207 175.064C215.57 176.996 213.74 178.464 211.447 179.526C210.057 180.17 208.713 180.712 207.279 181.22C206.466 181.502 205.63 181.785 204.771 181.819C204.252 181.841 203.63 182.056 203.382 181.661Z" fill="#94D5FF"/>
<path d="M219.049 152.383C217.038 154.382 215.435 156.8 213.898 159.172C212.283 161.679 210.804 164.277 209.471 166.954C206.884 172.15 204.794 177.707 203.665 183.411C203.62 183.649 203.947 183.739 204.026 183.513C205.743 177.933 207.72 172.489 210.34 167.259C211.605 164.752 212.995 162.3 214.508 159.94C216.09 157.477 217.908 155.184 219.478 152.722C219.659 152.451 219.264 152.157 219.049 152.383Z" fill="#004DBE"/>
<path d="M200.48 168.23C199.09 163.611 197.204 158.742 193.736 155.286C193.623 155.173 193.409 155.331 193.51 155.467C196.47 159.431 198.334 163.927 199.632 168.671C201.022 173.72 201.44 178.814 201.993 183.999C202.027 184.315 202.445 184.315 202.479 183.999C203.01 178.769 201.971 173.234 200.48 168.23Z" fill="#004DBE"/>
<path d="M192.528 159.341C191.658 159.364 190.585 159.047 189.862 158.55C189.218 158.11 188.936 157.409 188.721 156.675C188.461 155.794 187.964 155.229 187.275 154.642C186.36 153.863 185.366 153.298 184.169 153.151C183.943 153.129 183.288 153.185 183.22 152.891C183.13 152.519 184.101 151.965 184.35 151.841C185.14 151.446 186.112 151.265 186.993 151.254C187.637 151.242 188.303 151.604 188.924 151.525C188.247 151.005 187.75 149.921 187.693 149.096C187.637 148.294 187.919 146.634 188.834 146.318C189.512 146.08 189.489 147.131 189.568 147.56C189.715 148.339 190.043 149.582 190.664 150.113C190.653 148.915 191.319 147.153 192.561 146.769C192.629 147.537 192.042 148.407 192.336 149.187C192.573 148.723 192.866 148.317 193.296 147.967C193.555 147.752 193.962 147.266 194.335 147.289C194.098 147.797 194.086 148.543 194.064 149.107C194.007 150.339 195.001 150.824 195.781 151.615C196.199 152.044 196.729 152.394 196.989 152.948C197.385 153.761 197.385 154.857 197.26 155.726C197.034 157.217 195.747 159.239 192.528 159.341Z" fill="#D44459"/>
<path d="M225.6 148.836C225.747 148.791 226.052 148.78 226.097 148.599C226.221 148.091 224.584 147.831 224.313 147.775C223.725 147.65 223.115 147.696 222.528 147.809C222.336 147.842 221.986 148.035 221.907 147.82C221.839 147.628 222.234 147.018 222.313 146.849C222.438 146.589 222.686 146.25 222.641 145.945C221.918 145.821 220.506 146.577 220.359 147.323C219.941 146.736 219.794 145.967 219.331 145.391C219.105 145.098 218.8 144.748 218.462 144.612C218.281 144.544 217.806 144.443 217.637 144.578C217.468 144.714 217.524 145.075 217.535 145.267C217.581 145.922 217.694 146.634 217.535 147.289C217.332 148.125 216.722 148.317 216.044 148.701C215.604 148.961 215.197 149.333 214.87 149.718C214.384 150.294 214.068 150.994 214.023 151.751C213.932 153.208 214.802 154.563 215.886 155.444C216.18 155.693 216.508 155.907 216.846 156.088C218.97 157.218 222.155 157.726 223.409 155.105C223.951 153.965 223.929 152.824 223.827 151.604C223.816 151.412 223.804 151.197 223.895 151.028C224.064 150.689 224.505 150.542 224.843 150.463C225.126 150.395 225.634 150.271 225.171 150C224.798 149.774 224.279 149.943 223.883 149.921C224.188 149.616 224.505 149.401 224.877 149.187C225.115 149.04 225.34 148.927 225.6 148.836Z" fill="#D44459"/>
<path d="M220.099 208.148C220.099 202.771 217.524 199.146 213.537 197.067C210.894 195.689 209.132 193.08 209.132 190.098V181.559H198.096V190.098C198.096 193.08 196.334 195.689 193.691 197.067C189.704 199.146 187.128 202.771 187.128 208.148C187.128 211.706 188.258 215.501 190.189 218.799C191.94 221.793 196.108 225.215 196.108 228.683H211.131C211.131 225.215 215.299 221.804 217.05 218.799C218.97 215.501 220.099 211.706 220.099 208.148Z" fill="#FFD245"/>
<path d="M209.617 182.993H197.61C197.226 182.993 196.91 182.677 196.91 182.293V181.672C196.91 181.288 197.226 180.972 197.61 180.972H209.617C210.001 180.972 210.318 181.288 210.318 181.672V182.293C210.329 182.677 210.013 182.993 209.617 182.993Z" fill="#F59711"/>
<path d="M211.538 227.948H195.702C195.318 227.948 195.013 228.253 195.013 228.637V229.247C195.013 229.631 195.318 229.936 195.702 229.936H211.538C211.922 229.936 212.227 229.631 212.227 229.247V228.637C212.215 228.253 211.91 227.948 211.538 227.948Z" fill="#F59711"/>
</svg>
